<?xml version="1.0" encoding="UTF-8" standalone="no"?>
<!-- Created with Inkscape (http://www.inkscape.org/) -->

<svg
   width="585.99475"
   height="456.77924"
   viewBox="0 0 585.99475 456.77924"
   version="1.1"
   id="svg5"
   inkscape:version="1.3.2 (091e20ef0f, 2023-11-25, custom)"
   sodipodi:docname="costco-vliw.svg"
   xmlns:inkscape="http://www.inkscape.org/namespaces/inkscape"
   xmlns:sodipodi="http://sodipodi.sourceforge.net/DTD/sodipodi-0.dtd"
   xmlns="http://www.w3.org/2000/svg"
   xmlns:svg="http://www.w3.org/2000/svg">
  <sodipodi:namedview
     id="namedview7"
     pagecolor="#ffffff"
     bordercolor="#000000"
     borderopacity="0.25"
     inkscape:showpageshadow="2"
     inkscape:pageopacity="0.0"
     inkscape:pagecheckerboard="0"
     inkscape:deskcolor="#d1d1d1"
     inkscape:document-units="px"
     showgrid="false"
     inkscape:zoom="1.4142136"
     inkscape:cx="425.67827"
     inkscape:cy="210.71782"
     inkscape:window-width="2560"
     inkscape:window-height="1420"
     inkscape:window-x="0"
     inkscape:window-y="0"
     inkscape:window-maximized="1"
     inkscape:current-layer="layer1" />
  <defs
     id="defs2" />
  <g
     inkscape:label="Layer 1"
     inkscape:groupmode="layer"
     id="layer1"
     transform="translate(-368.63522,-215.43477)">
    <path
       style="fill:none;stroke:#dd1100;stroke-width:2;stroke-linecap:round;stroke-linejoin:round"
       d="m 618.55409,410.3041 c 7.52338,-1.77285 15.27618,-2.44308 22.9095,-3.71636 21.45539,-3.57889 42.7211,-7.62592 64.42958,-9.46908 20.41177,-1.73306 40.86865,-2.56997 61.31838,-3.66548 14.9724,-0.80209 29.91639,-2.01761 44.85743,-3.25816 15.8658,-1.31733 31.7116,-2.81635 47.5727,-4.17453 5.17169,-0.44286 17.17916,-1.44409 23.81462,-1.73096 2.15128,-0.093 8.37635,-0.18155 10.01231,0.40729"
       id="path1" />
    <path
       style="fill:none;stroke:#dd1100;stroke-width:2;stroke-linecap:round;stroke-linejoin:round"
       d="m 801.03848,300.69673 c 4.90609,9.51656 14.04086,16.80447 22.34386,23.31639 2.77929,2.17976 5.29988,4.65244 8.08909,6.82183 4.11111,3.19753 8.73298,5.67436 12.84065,8.9091 7.40216,5.82911 14.54702,11.92115 21.55191,18.22548 6.52114,5.86895 12.18144,12.59869 18.32764,18.83638 0.12812,0.13004 7.63698,7.58336 7.97592,6.00726 0.47075,-2.18899 -2.71226,-3.87886 -4.18593,-4.73452"
       id="path2" />
    <path
       style="fill:none;stroke:#dd1100;stroke-width:2;stroke-linecap:round;stroke-linejoin:round"
       d="m 561.93069,320.24587 c 14.18214,0.32587 28.16522,-2.53975 42.25541,-3.41093 10.3855,-0.64213 20.78151,-0.48257 31.16825,-0.96727 5.01533,-0.23404 9.94005,-1.12986 14.93366,-1.52729 8.78259,-0.69898 17.59081,-1.04942 26.36009,-1.93453 6.66898,-0.67311 13.20127,-2.21691 19.85493,-3.00365 8.88105,-1.05011 17.82646,-1.26522 26.69958,-2.29089 7.12277,-0.82334 14.17825,-1.96089 21.26905,-3.00365 3.45312,-0.5078 6.99281,-0.60158 10.46487,-0.96726 5.54591,-0.5841 11.17848,-1.44633 16.74381,-1.73091 5.34002,-0.27307 10.71683,0.10434 16.06493,-0.0509 1.74711,-0.0507 11.47938,-0.1996 11.99215,-0.76364 0.2134,-0.23474 -0.26395,-0.57697 -0.39593,-0.86546"
       id="path3" />
    <path
       style="fill:none;stroke:#000000;stroke-width:2;stroke-linecap:round;stroke-linejoin:round"
       d="m 800.92532,308.07858 c -0.39597,1.71393 -0.87907,3.41004 -1.1879,5.1418 -0.96419,5.40676 -0.6966,11.12384 -1.24442,16.59638 -0.64413,6.43457 -1.51586,12.8535 -2.09301,19.2946 -1.27626,14.24325 -2.12787,28.50221 -3.79,42.71276 -0.57197,4.89014 -1.39084,9.7125 -2.26262,14.56 -0.5128,2.85143 -1.25308,5.85442 -1.41421,8.75636 -0.0709,1.27672 0.79108,-2.43286 1.13135,-3.66545 2.10924,-7.64046 0.44552,-1.92228 1.97985,-7.12726"
       id="path4" />
    <path
       style="fill:none;stroke:#000000;stroke-width:2;stroke-linecap:round;stroke-linejoin:round"
       d="m 892.56349,385.71501 c -0.32052,1.01818 -0.7044,2.01854 -0.96157,3.05453 -0.59937,2.41456 -0.67132,5.26255 -1.01828,7.68729 -0.55116,3.85186 -1.23645,7.68674 -1.97976,11.50546 -0.9735,5.00131 -2.27759,9.92368 -3.2809,14.9164 -0.85138,4.23667 -1.36817,8.53615 -2.20608,12.7782 -1.8392,9.31112 -4.13594,18.55986 -6.50518,27.74548 -1.18381,4.58967 -2.75608,9.0865 -4.46879,13.49092 -0.52555,1.35151 -0.43156,3.4642 -1.24451,4.68363 -0.096,0.14399 -0.3607,0.0128 -0.5091,0.10181"
       id="path5" />
    <path
       style="fill:none;stroke:#000000;stroke-width:2;stroke-linecap:round;stroke-linejoin:round"
       d="m 791.02617,418.14413 c 3.13117,4.00387 7.66581,4.89686 11.87899,7.1273 2.69374,1.42605 5.41272,3.47099 7.69307,5.44728 5.45048,4.7237 8.46924,11.65278 13.63261,16.59638 3.56373,3.41205 7.71427,5.91113 11.87899,8.50181 5.66208,3.5221 11.11786,7.35111 16.51758,11.25091 4.38665,3.16814 8.85347,5.51798 12.72749,9.41819 0.97102,0.97759 2.74995,3.26179 4.07277,4.17454 0.99006,0.68315 1.76146,0.76933 1.69707,0.30547 -0.18202,-1.31124 -2.63984,-0.40787 -3.95969,-0.30547"
       id="path6" />
    <path
       style="fill:none;stroke:#000000;stroke-width:2;stroke-linecap:round;stroke-linejoin:round"
       d="m 601.64058,349.77315 c 2.61768,5.81502 2.97843,12.27508 4.07281,18.48003 0.81088,4.5975 1.76264,9.1503 2.8283,13.69454 1.69903,7.24508 3.48589,14.39693 4.75165,21.73822 1.42444,8.26166 2.16452,16.62223 3.50714,24.89457 0.95009,5.85388 2.57212,11.57553 3.84653,17.36002 0.93417,4.24017 1.63305,8.52326 2.48894,12.77821 1.37531,6.83715 2.44828,13.72458 3.79,20.56729 0.88085,4.49231 1.94705,8.94548 2.82834,13.43999 0.61346,3.12864 1.35605,6.25602 2.20608,9.31639 0.0421,0.15167 0.80063,3.71636 0.6788,3.71636 -0.17763,0 -1.18166,-2.334 -2.09293,-2.90184"
       id="path7" />
    <path
       style="fill:none;stroke:#000000;stroke-width:2;stroke-linecap:round;stroke-linejoin:round"
       d="m 499.36784,371.10409 c 0.0189,-0.95031 1.00688,-2.83205 0.0566,-2.85091 -0.95031,-0.0189 -0.32478,1.93904 -0.0566,2.85091 0.76672,2.60679 2.16745,4.98649 3.1112,7.53454 1.08405,2.92688 1.65295,6.02006 2.54548,9.01091 1.72243,5.77187 3.82908,11.42059 5.65668,17.1564 2.67085,8.38227 4.49059,17.0638 6.56176,25.60729 0.77387,3.19221 1.79487,6.30207 2.65864,9.46912 2.74326,10.05825 5.39636,20.25098 9.16382,29.98549 3.76895,9.73836 6.08816,20.01312 8.31532,30.18911 0.63226,2.88881 1.33346,5.77549 1.75357,8.70547 0.20175,1.40714 0.30109,2.83814 0.62221,4.22542 0.0965,0.41711 0.11153,1.54185 0.39598,1.22186 0.65708,-0.73916 0.39368,-3.27131 0.22628,-4.22546"
       id="path10" />
    <path
       style="fill:none;stroke:#000000;stroke-width:2;stroke-linecap:round;stroke-linejoin:round"
       d="m 552.25778,266.79125 c -0.47415,-1.28563 -1.72751,-3.34845 -1.41417,-5.03999 0.0406,-0.21928 0.30424,0.56661 0.84849,1.32362 1.65649,2.30406 -3.4721,-4.44062 0.56568,3.71637 1.34468,2.71649 3.4827,4.96533 5.091,7.53455 2.1753,3.47497 4.03579,8.00922 5.76984,11.60731 1.7301,3.58988 3.24351,7.28641 5.14755,10.7927 1.7015,3.13332 3.60774,6.03111 5.37386,9.11276 2.73931,4.77975 5.14582,9.73875 7.91935,14.50911 2.68753,4.62245 6.02554,8.63984 8.37186,13.49092 1.87211,3.87065 4.05789,7.55359 5.88296,11.45454 0.79,1.68856 1.37137,3.47236 2.20613,5.14184 0.11496,0.22993 0.37695,0.91815 0.39593,0.66179 0.0691,-0.93299 -0.40801,-1.82688 -0.56563,-2.74906"
       id="path13" />
    <path
       style="fill:none;stroke:#000000;stroke-width:2;stroke-linecap:round;stroke-linejoin:round"
       d="m 540.37878,517.36604 c 0.98049,-0.0679 1.96,-0.15166 2.94146,-0.20362 1.90844,-0.10102 3.72611,0.28478 5.65668,0.0509 3.76484,-0.45611 7.39788,-1.64802 11.14366,-2.18908 3.68827,-0.53275 7.59499,-0.81742 11.31332,-0.96727 3.41599,-0.13766 6.76263,0.49052 10.18206,0.0509 10.97195,-1.41065 21.82229,-4.11156 32.86527,-4.78545 2.38859,-0.14576 4.44935,0.79504 6.78804,0.81453 5.98102,0.0499 12.04606,-0.53618 17.98823,-1.22181 7.68244,-0.88644 15.17729,-2.55359 22.79643,-3.76725 5.1629,-0.82241 10.3247,-1.74551 15.49929,-2.49456 4.35439,-0.63031 8.76693,-0.75346 13.12343,-1.37455 2.78875,-0.39758 5.51937,-1.10813 8.31532,-1.47636 17.8112,-2.34575 35.7281,-4.01129 53.62532,-5.4982 3.02932,-0.25168 6.04651,-1.01389 9.05074,-1.47637 4.83402,-0.74416 9.49127,-1.35517 14.36794,-1.83272 9.51066,-0.93132 19.09173,-1.31129 28.56618,-2.54543 5.9354,-0.77315 11.89181,-1.86925 17.87516,-2.18913 3.90158,-0.20858 7.7231,0.46042 11.59614,0.30548 5.48994,-0.21963 10.93393,-1.12143 16.40441,-1.57822 4.70447,-0.39283 11.56601,-0.24359 15.83869,-1.78179 1.31161,-0.47219 4.25158,-1.1235 2.20608,-2.59636"
       id="path15" />
    <path
       style="fill:none;stroke:#000000;stroke-width:2;stroke-linecap:round;stroke-linejoin:round"
       d="m 550.05169,267.80944 c 0.28283,1.23879 0.58349,2.47365 0.8485,3.71637 0.5759,2.70061 0.75819,5.47357 1.47075,8.14545 1.67198,6.26944 4.20107,12.42078 5.2607,18.83639 0.82481,4.99387 1.77188,9.99065 2.37578,15.01821 0.61953,5.15764 0.97153,10.27945 1.81015,15.42545 0.69924,4.29069 1.78051,8.52274 2.65864,12.7782 0.71893,3.48392 1.15534,7.02436 1.97985,10.48727 1.02105,4.28838 2.28703,8.51783 3.22428,12.82912 1.08165,4.97557 1.86016,10.05924 2.82834,15.0691 1.08073,5.59228 1.69929,11.23921 2.65864,16.85092 0.42577,2.49055 1.07416,4.93453 1.47075,7.43274 0.65473,4.12423 1.22326,8.30195 2.20608,12.37091 0.54099,2.23973 0.88339,4.6693 1.01824,6.97457 0.0332,0.567 -0.13454,1.79415 0.1697,2.34182 0.21025,0.37848 0.29155,5.03999 0.3394,5.03999 0.0802,0 -0.29379,-2.34018 -0.3394,-2.54544"
       id="path16" />
    <path
       style="fill:none;stroke:#000000;stroke-width:2;stroke-linecap:round;stroke-linejoin:round"
       d="m 451.17302,273.15491 c 0.26397,1.08605 0.44734,2.19492 0.79191,3.25815 1.5007,4.63062 3.87585,8.99269 5.48698,13.59273 1.85333,5.29155 3.19332,10.70348 4.52537,16.13821 3.01185,12.2882 6.82278,24.29787 10.29513,36.45096 0.55126,1.92939 0.8471,3.93463 1.41417,5.85456 0.79011,2.67508 1.79778,5.27264 2.60206,7.94179 2.75297,9.1362 5.20356,18.29954 8.71131,27.1855 1.28914,3.26573 2.03551,6.64639 3.22431,9.92729 0.99047,2.73352 2.09917,5.42886 2.99804,8.19638 0.49471,1.52312 0.77,3.1255 1.30101,4.63271 1.68679,4.78773 3.58649,9.50542 5.37387,14.25456 0.87981,2.33769 1.70238,4.71671 2.48894,7.07638 0.23148,0.69444 0.16786,1.7153 0.56568,2.34181 0.70368,1.10821 0.64765,2.84999 0.90503,4.12366 0.1113,0.55076 0.0873,1.1521 0.28286,1.67998 0.0645,0.17414 0.41199,0.5091 0.22628,0.5091 -0.85822,0 -0.28684,-3.73589 -0.28286,-3.76725"
       id="path17" />
    <path
       style="fill:none;stroke:#000000;stroke-width:2;stroke-linecap:round;stroke-linejoin:round"
       d="m 507.73974,436.31868 c 8.07969,-1.17816 16.29165,-1.16685 24.43683,-1.67999 4.17135,-0.26278 8.32441,-0.91462 12.50126,-1.06907 2.09221,-0.0774 4.18558,0.15269 6.27894,0.15269 2.49722,0 4.99068,-0.32409 7.46678,-0.6109 7.97752,-0.92407 15.9688,-1.85717 23.92774,-2.9018 6.9161,-0.90776 13.89301,-1.34985 20.81658,-2.24001 11.39002,-1.46439 22.83242,-2.89458 34.27948,-3.8691 5.63491,-0.47971 11.26145,-0.69745 16.91343,-0.55998 4.34285,0.10563 8.66169,0.59354 13.01043,0.35636 3.95723,-0.21583 7.93246,-0.32764 11.879,-0.71276 4.21797,-0.41162 8.3817,-1.13522 12.61442,-1.42544 7.44117,-0.5102 14.89503,-0.52308 22.34386,-0.81453 6.70397,-0.2623 13.44683,-0.5035 20.13778,-1.01819 9.91777,-0.7629 19.76447,-2.19033 29.69754,-2.7491 5.35167,-0.30105 10.66973,-0.81293 16.00839,-1.22181 1.85321,-0.14194 3.7395,-0.3022 5.60014,-0.20367 0.43239,0.0229 0.96193,0.4912 -0.39602,0.20367"
       id="path18" />
    <path
       style="fill:none;stroke:#000000;stroke-width:2;stroke-linecap:round;stroke-linejoin:round"
       d="m 504.99906,435.19867 c 3.1557,5.62681 5.28034,11.74301 7.91934,17.61458 4.0297,8.96576 8.11117,17.9322 11.7093,27.08369 2.97663,7.57077 5.73038,15.23207 8.82442,22.75637 1.67775,4.08007 3.85825,7.87991 5.93954,11.76001 0.50917,0.94923 1.22623,2.1582 1.47071,3.2582 0.0736,0.3313 0.29863,1.17939 0,1.01815 -1.04231,-0.56279 -1.50891,-2.30016 -2.14955,-3.30908"
       id="path19" />
    <path
       style="fill:none;stroke:#000000;stroke-width:2;stroke-linecap:round;stroke-linejoin:round"
       d="m 501.09594,440.69688 c -2.41958,3.90857 -3.36637,8.3157 -4.18593,12.7782 -0.79491,4.32832 -1.2983,8.70379 -2.09301,13.03275 -1.5486,8.43556 -3.32109,16.80473 -5.03442,25.2 -0.84932,4.16162 -1.93226,8.32872 -2.88492,12.47277 -0.5296,2.30373 -0.90457,4.63045 -1.41417,6.92364 -0.10245,0.46102 -0.3394,0.89899 -0.3394,1.37455 0,0.0869 0.0446,-0.16845 0.0566,-0.25455 0.11421,-0.82208 0.0772,-1.31581 0.6788,-1.93457"
       id="path21" />
    <path
       style="fill:none;stroke:#000000;stroke-width:2;stroke-linecap:round;stroke-linejoin:round"
       d="m 537.35523,516.34785 c -2.01332,5.86 -2.62879,12.09068 -3.67683,18.1746 -1.75979,10.2156 -2.84408,20.54594 -4.69503,30.74909 -0.70139,3.86634 -1.92226,7.60119 -2.88492,11.40365 -1.00898,3.98542 -1.82469,8.02502 -2.82834,12.01455 -1.22324,4.86241 -2.25276,9.79405 -3.22432,14.71274 -0.4186,2.11921 -1.24447,4.38572 -1.24447,6.56732 0,0.1188 -0.005,-0.23773 0,-0.3564 0.0459,-0.99199 0,-1.95744 0,-2.95273"
       id="path23" />
    <path
       style="fill:none;stroke:#000000;stroke-width:2;stroke-linecap:round;stroke-linejoin:round"
       d="m 488.19871,514.51513 c -0.1697,1.22182 -0.5357,2.43219 -0.5091,3.66544 0.0221,1.0253 2.26764,5.71706 2.54548,6.41459 2.13099,5.34989 4.01701,10.80286 6.05266,16.18909 3.32775,8.805 5.81684,17.85452 8.76784,26.77822 2.41554,7.30447 5.22188,14.45118 7.80623,21.6873 1.74389,4.88285 3.96892,9.53226 5.31729,14.56004 0.0741,0.27643 0.52429,3.33618 0.33939,3.35996 -0.60539,0.0779 -1.40865,-1.74851 -1.41417,-2.03638 -0.0121,-0.62913 0.30168,-1.22179 0.45252,-1.83268"
       id="path24" />
    <path
       style="fill:none;stroke:#000000;stroke-width:2;stroke-linecap:round;stroke-linejoin:round"
       d="m 487.23705,513.54787 c 2.8502,-0.98909 5.74731,-1.21182 8.71131,-1.47637 11.30747,-1.00923 22.64877,-1.32605 33.94009,-2.59636 3.77926,-0.42518 7.49035,-1.2759 11.25678,-1.78184 3.59312,-0.48265 7.25213,-0.55832 10.8608,-0.91633 4.07022,-0.40381 8.07637,-1.11047 12.16186,-1.37456 8.7572,-0.56607 17.55802,0.0407 26.30356,-0.76364 5.1575,-0.47432 10.26979,-1.42405 15.38618,-2.18912 10.31965,-1.54314 20.65229,-3.17752 30.99858,-4.5309 8.36896,-1.09473 16.8132,-0.9667 25.17221,-1.98546 14.7053,-1.79221 29.11211,-5.79671 43.89582,-7.12726 2.73474,-0.24612 5.47265,-0.26972 8.20216,-0.6109 7.35655,-0.91956 14.69608,-2.06523 22.0611,-2.90184 2.37482,-0.26976 4.5479,-0.10181 6.90111,-0.10181 2.60193,0 5.20435,-0.20367 7.80622,-0.20367 1.62158,0 3.24316,0 4.86473,0 0.61502,0 1.75543,0.80309 1.47075,0.61095"
       id="path26" />
    <path
       style="fill:none;stroke:#000000;stroke-width:2;stroke-linecap:round;stroke-linejoin:round"
       d="m 524.7974,608.18796 c -1.01819,0.3394 -2.03639,0.6788 -3.05458,1.0182 -0.0189,0 -0.0657,0.0165 -0.0566,0 0.52958,-0.95406 2.03044,-0.86751 3.11116,-1.0182 1.66344,-0.23193 3.36276,-0.0417 5.03447,-0.20362 3.55718,-0.34447 7.12635,-1.32968 10.63456,-1.98546 5.5462,-1.03672 11.10171,-1.9176 16.68719,-2.69817 9.09772,-1.27141 18.19982,-2.8365 27.20863,-4.63279 4.04895,-0.80734 8.07877,-1.80764 12.16186,-2.44363 8.43487,-1.31383 17.17883,-0.81365 25.6813,-1.52729 10.11979,-0.84939 19.90635,-3.50806 29.92382,-4.93814 8.73452,-1.24692 17.57758,-1.02787 26.36014,-1.37455 5.49493,-0.2169 11.03331,-0.53435 16.51749,-0.96731 8.70734,-0.68741 17.34686,-2.01481 26.02074,-3.0036 6.44543,-0.73476 12.86301,-1.02701 19.2892,-2.03639 5.85166,-0.91914 11.64111,-2.16642 17.47915,-3.15634 1.55373,-0.26346 2.98047,-0.23348 4.52532,-0.40729 2.72081,-0.30611 5.38685,-0.99631 8.08909,-1.42548 4.00523,-0.63611 7.92028,-0.48551 11.93562,-0.7636 1.5752,-0.10909 2.97742,-0.78559 4.52533,-0.96731 3.46432,-0.40669 6.98987,-0.52943 10.46487,-0.96726 3.02774,-0.38148 5.97666,-1.1708 8.99412,-1.57817 0.88498,-0.11948 1.77462,0.026 2.65864,-0.0509 1.29028,-0.11236 2.5134,-0.59784 3.78991,-0.71272 0.98136,-0.0883 2.00889,0 2.99804,0 0.10375,0 1.35759,0.058 1.35759,0.0509 0,-0.19884 0.45898,-0.64383 0.73542,-0.96727"
       id="path27" />
    <path
       style="fill:none;stroke:#000000;stroke-width:2;stroke-linecap:round;stroke-linejoin:round"
       d="m 760.17181,485.64965 c 0.89378,4.63227 5.02527,6.9642 7.24051,10.89455 1.5679,2.78181 2.12623,6.04452 3.56367,8.9091 1.48306,2.95547 3.53867,5.55191 5.20421,8.4 2.22224,3.80004 4.56187,8.90351 6.90111,12.37096 3.6529,5.41466 8.62414,9.9947 12.95382,14.86547 2.86068,3.21819 5.15038,6.80207 7.86276,10.13091 2.04845,2.514 4.43605,4.73285 6.44864,7.27999 2.21906,2.80846 4.20017,5.62586 5.93945,8.75636 0.16383,0.29488 1.24854,3.15156 1.58392,2.74911 0.86112,-1.03337 -0.69252,-1.64791 -1.69699,-0.35636"
       id="path28" />
    <path
       style="fill:none;stroke:#000000;stroke-width:2;stroke-linecap:round;stroke-linejoin:round"
       d="m 820.18914,575.40245 c -0.39596,-0.95029 -0.2376,-3.24684 -1.18789,-2.85087 -0.95029,0.39596 2.20157,2.67118 1.18789,2.85087 -7.70827,1.36636 -2.50574,-5.2928 -6.90119,-0.45817 -2.4045,2.64474 -3.32533,5.51233 -4.07277,8.96002 -1.36089,6.27728 -1.37531,11.48357 5.76984,13.99997 2.52014,0.88755 5.60524,1.61372 8.089,0.20371 4.3827,-2.48802 9.1323,-11.32949 8.54156,-16.49461 -0.18119,-1.58424 -1.02327,-2.85445 -1.86669,-4.17454 -2.21384,-3.46503 -5.99347,-6.52354 -10.40824,-5.4982 -1.11382,0.25868 -2.14958,0.78062 -3.22436,1.17093"
       id="path29" />
    <path
       style="fill:none;stroke:#000000;stroke-width:2;stroke-linecap:round;stroke-linejoin:round"
       d="m 767.24262,493.13331 c -2.7427,0.076 -3.30293,0.35221 -4.58186,-1.37455"
       id="path30" />
    <path
       style="fill:none;stroke:#000000;stroke-width:2;stroke-linecap:round;stroke-linejoin:round"
       d="m 763.05669,490.33328 c -5.69927,-0.94707 -8.55952,3.03386 -9.72954,8.29819 -0.49924,2.24629 -0.16636,4.70922 0.84858,6.77094 0.68981,1.40126 2.11216,4.54771 3.67684,5.54909 4.9923,3.19506 11.53329,0.31104 14.42448,-4.32727 1.9815,-3.17891 4.32481,-11.62579 1.35759,-14.76366 -2.59629,-2.7456 -7.24502,-2.90338 -10.57795,-1.52729 -2.67146,1.10298 -4.2322,3.12011 -5.93954,5.14185"
       id="path31" />
    <path
       style="fill:none;stroke:#000000;stroke-width:2;stroke-linecap:round;stroke-linejoin:round"
       d="m 488.48153,519.8606 c -1.11248,-0.49212 -2.17364,-1.12231 -3.33744,-1.47636 -0.15842,-0.0482 -1.26819,0.55726 -1.35759,0.6109 -2.96794,1.78071 -3.32578,5.10265 -3.45056,8.24727 -0.10833,2.73045 0.70871,5.11401 1.97981,7.48366 5.02303,9.36417 16.18965,7.31462 21.38225,-1.17093 3.21177,-5.24854 -1.49059,-9.56259 -4.9213,-12.9309 -1.14897,-1.12806 -2.55435,-2.85191 -4.46879,-2.49455 -5.79985,1.08263 -6.06708,1.88088 -10.97393,4.93818"
       id="path32" />
    <path
       style="fill:none;stroke:#000000;stroke-width:2;stroke-linecap:round;stroke-linejoin:round"
       d="m 521.00745,615.51884 c -4.12006,-2.43468 -6.66104,-3.01718 -9.61638,1.22182 -1.33131,1.90956 -3.17769,4.9397 -3.22428,7.33097 -0.0864,4.43273 5.01691,11.31898 9.44664,12.11636 2.89037,0.52029 5.62105,-1.64793 7.57995,-3.41089 4.11116,-3.69995 6.8126,-11.62672 2.03642,-15.78189 -0.72427,-0.63011 -1.4848,-1.21919 -2.2627,-1.78175 -0.28048,-0.20284 -0.55993,-0.53572 -0.90503,-0.5091 -1.05066,0.081 -2.00422,0.73019 -3.05462,0.81448 -7.79159,0.62529 -3.79139,-1.67153 -8.20221,1.73091"
       id="path33" />
    <path
       style="fill:none;stroke:#000000;stroke-width:2;stroke-linecap:round;stroke-linejoin:round"
       d="m 451.39915,275.7116 c -0.53069,-3.71486 -0.5091,-2.36372 -0.5091,-4.02184 0,-4.55769 -5.24845,-9.35729 -9.39009,-10.38546 -2.40336,-0.59663 -4.74549,-0.23099 -7.18397,0 -2.01268,0.19066 -4.06003,0.55768 -6.05262,0.91639 -0.55842,0.10052 -1.0734,0.20362 -1.64045,0.20362 -0.63927,0 -1.68072,0.11993 -1.30105,-0.0509 0.73393,-0.33029 1.32671,0.0856 1.75357,0.66183"
       id="path9" />
    <path
       style="fill:none;stroke:#000000;stroke-width:2;stroke-linecap:round;stroke-linejoin:round"
       d="m 470.34904,361.69711 c 3.67842,-1.17241 10.53117,-4.79219 14.59422,-4.5309 1.86107,0.11968 4.08829,1.03978 5.88296,1.57817 1.50861,0.45258 3.60985,0.78419 4.80815,1.93458 1.28251,1.23124 2.82205,5.31135 3.1112,6.87271 0.12711,0.68638 0.0183,1.40584 0.1697,2.08727 0.19825,0.89207 0.3013,0.78049 0.96161,1.01819"
       id="path11" />
    <path
       style="fill:none;stroke:#dd1100;stroke-width:2;stroke-linecap:round;stroke-linejoin:round"
       d="m 425.60473,266.39522 c 0.49024,1.13697 1.01941,2.25792 1.47071,3.41089 1.28539,3.28392 1.89466,6.93207 3.05462,10.28365 1.67729,4.84638 3.85361,9.40269 6.10919,14.00002 3.97231,8.09632 8.36116,16.01406 12.10532,24.23277 2.41515,5.30143 4.44081,10.7781 7.07085,15.98548 1.84941,3.66175 3.14481,7.55932 4.80815,11.30179 1.02348,2.30282 2.36922,4.4855 3.6203,6.66914 1.09078,1.90386 2.20857,3.82406 3.05457,5.85452 0.42946,1.0307 0.64457,2.5108 0.62226,2.49455 -0.81802,-0.59596 -1.47075,-1.52094 -1.47075,-2.54544"
       id="path12" />
    <path
       style="fill:none;stroke:#dd1100;stroke-width:2;stroke-linecap:round;stroke-linejoin:round"
       d="m 431.26141,263.03521 c 4.51963,9.49788 9.4785,18.74352 14.65076,27.89822 1.70821,3.02348 3.28102,6.10567 4.92135,9.16365 1.46639,2.73371 3.12664,5.33682 4.35563,8.19638 2.97105,6.91296 6.05244,13.74506 9.10723,20.61817 1.59656,3.59217 3.03652,7.31206 4.86477,10.79275 2.33397,4.44348 4.14403,9.11282 6.39201,13.59273 0.69822,1.39144 1.49179,2.73895 2.20613,4.12365 0.26336,0.5105 0.50677,1.01495 0.84849,1.47636 0.0377,0.0509 0.11312,0.21609 0.11312,0.15274 0,-0.37946 -0.36867,-0.66567 -0.50909,-1.01819 -0.24698,-0.62003 -0.45253,-1.25577 -0.6788,-1.88365"
       id="path14" />
    <path
       style="fill:none;stroke:#dd1100;stroke-width:2;stroke-linecap:round;stroke-linejoin:round"
       d="m 455.13256,270.00978 c 1.88963,0.58932 3.66097,1.79229 5.60011,2.29089 1.29387,0.33269 3.98071,-0.24179 5.43044,-0.30543 3.9747,-0.17449 7.9606,-0.38575 11.93558,-0.5091 8.98379,-0.27878 17.71452,-1.3374 26.64296,-2.34182 8.54687,-0.96149 17.12511,-1.74891 25.6813,-2.64729 4.70783,-0.49431 9.47628,-0.74586 14.19824,-1.17088 1.303,-0.11729 2.60159,-0.2309 3.90311,-0.35641 1.06133,-0.10234 1.44078,-0.15573 1.41417,-0.20362 -0.36714,-0.66079 -1.52395,-0.008 -2.26266,0.15274"
       id="path20" />
    <path
       style="fill:none;stroke:#dd1100;stroke-width:2;stroke-linecap:round;stroke-linejoin:round"
       d="m 501.17793,363.73349 c 6.15735,-1.95233 12.64724,-2.7079 19.00643,-3.8691 6.76329,-1.235 13.62868,-1.5149 20.47718,-2.24001 10.28432,-1.08889 20.56444,-2.45131 30.88547,-3.10546 3.52126,-0.22318 6.9214,-0.81523 10.40829,-1.37451 2.74602,-0.44045 5.51381,-0.57506 8.25874,-1.06912 1.45672,-0.26219 3.54558,-0.18105 4.9213,-0.76364 1.1722,-0.4964 -0.44791,-0.38774 -0.62225,-0.35636"
       id="path22" />
    <path
       style="fill:none;stroke:#000000;stroke-width:2;stroke-linecap:round;stroke-linejoin:round"
       d="m 455.07598,274.48979 c 3.89553,4.62869 6.2726,10.1876 8.76789,15.62907 2.28121,4.97464 4.63119,10.04998 6.56175,15.17095 1.80225,4.78059 3.14882,9.73882 5.09101,14.45818 3.10793,7.55204 7.24244,14.71368 10.01231,22.40001 2.00564,5.56565 5.68852,10.23958 8.54156,15.37457 1.02669,1.84789 3.38512,4.3637 3.67687,6.46547 0.033,0.23764 -0.21865,-0.43067 -0.28286,-0.66183"
       id="path25" />
    <path
       style="fill:none;stroke:#dd1100;stroke-width:2;stroke-linecap:round;stroke-linejoin:round"
       d="m 428.9987,264.86793 c 0.33942,1.06909 0.71542,2.12725 1.01824,3.20727 0.71555,2.55206 1.1499,5.20846 1.75357,7.7891 0.0758,0.324 0.22346,1.20095 0.39593,0.91638 0.61105,-1.00819 0.32886,-2.71119 0.45256,-3.8691 0.0519,-0.48567 -0.001,-1.77564 0.3394,-1.42544 1.5946,1.64014 0.72634,9.97259 1.81015,12.16729 0.16827,0.34075 0.32383,-0.69599 0.39593,-1.06911 0.18401,-0.95228 0.0433,-2.44717 0.56568,-3.30909 0.24069,-0.3971 0.17708,0.91282 0.22628,1.37455 0.26005,2.44093 0.23129,5.39173 1.07477,7.73817 0.54531,1.51699 1.36843,-4.68475 1.47071,-4.88725 0.20081,-0.39759 0.15515,0.50595 0.45256,2.64725 0.40772,2.93556 0.94427,6.26588 1.97984,9.06183 0.0866,0.23374 0.19698,-0.46519 0.22624,-0.71272 0.0703,-0.59492 -0.0157,-2.61893 0.3394,-3.2582 0.0503,-0.0905 0.054,0.20196 0.0566,0.30548 0.0163,0.64464 -0.0487,1.29153 0,1.93453 0.0944,1.24671 0.16359,6.71176 1.41417,8.4 0.22107,0.29844 0.35964,-0.65856 0.45256,-1.01815 0.22485,-0.87013 0.59769,-2.46363 0.79191,-3.2582 0.0721,-0.29481 0.0226,-1.02159 0.28282,-0.86545 0.0216,0.0129 0.80049,8.17897 1.69703,10.23272 0.96437,2.20913 1.28821,-2.34894 1.52729,-2.85091 0.12821,-0.26921 0.19934,0.56849 0.22627,0.86545 0.15949,1.75845 -0.0118,1.54568 0.39598,3.15639 0.39209,1.54874 1.35791,6.26206 2.48895,7.17818 0.74928,0.60692 0.77834,-3.15134 1.24442,-2.54548 0.3176,0.41285 2.11193,9.08896 2.71523,8.6546 0.72666,-0.52318 0.67696,-2.12941 0.84849,-2.95277 0.0554,-0.26573 0.16266,-1.00697 0.28286,-0.7636 0.89251,1.80714 0.73071,4.37187 1.97981,6.05818 0.21637,0.29211 0.54345,-3.00119 0.96165,-1.73091 0.45197,1.37285 0.42491,2.95787 0.73538,4.37816 0.48374,2.21296 1.06299,4.40037 1.52728,6.61821 0.14205,0.67852 0.35927,3.11183 0.96166,3.56363 0.13897,0.10423 0.62221,-4.06661 0.62221,-3.30908 0,3.47193 -0.78161,7.0672 0.62226,10.43638 0.002,0.006 0.35808,-4.36504 0.5091,-1.37455 0.0311,0.61662 -0.0216,3.83337 0.50909,4.17454 0.52822,0.33955 1.30842,-4.62124 1.52729,-4.58183 0.22576,0.0407 0.75755,5.23422 0.90508,5.90545 0.24467,1.11325 0.78233,4.34139 1.41417,4.53094 1.40666,0.422 0.72977,-5.11965 1.64045,-3.20727 0.4831,1.0145 0,3.61563 0,4.78544 0,0.24055 -0.0657,0.87364 0.11311,0.71272 0.4894,-0.44048 0.19438,-1.7642 0.62226,-2.34182 0.0418,-0.0564 0.20681,1.84251 0.22624,2.08727 0.0331,0.41634 0.58148,2.16253 0.73537,0.91638"
       id="path34" />
    <path
       style="fill:none;stroke:#000000;stroke-width:2;stroke-linecap:round;stroke-linejoin:round"
       d="m 468.08638,305.03526 c 2.56157,9.75093 5.95749,19.32682 8.82442,29.01822 1.06723,3.60769 1.7643,7.30841 2.71518,10.94544 3.32697,12.72543 6.68682,25.63682 10.97396,38.08005 3.16413,9.18373 6.84916,18.20816 9.5598,27.54182 1.00123,3.44759 1.97687,6.96642 3.22427,10.33457 0.0911,0.24599 0.16904,-0.8273 0.3394,-0.15273 0.3493,1.38306 0.3576,2.83253 0.67884,4.22546 0.60782,2.63562 1.8047,5.1339 2.54548,7.73821 0.59996,2.10925 1.18177,4.23051 1.69703,6.36362 0.20317,0.8411 0.92936,1.78909 0.5091,2.54548 -0.30795,0.55423 -0.3647,-1.21535 -0.5091,-1.83272"
       id="path35" />
    <path
       style="fill:none;stroke:#000000;stroke-width:2;stroke-linecap:round;stroke-linejoin:round"
       d="m 487.99788,358.23529 c -0.88895,-7.71771 -0.36629,-1.16688 0,0 4.26276,10.49975 2.33775,5.09789 5.54352,15.47637 7.18768,23.26969 14.34069,46.50267 20.92974,69.94919 1.67122,5.9469 3.56685,11.69356 5.4304,17.56365 0.3104,0.97774 1.20328,3.9525 1.58387,5.34546 0.40948,1.49867 0.47029,1.90277 0.39594,1.88365 -0.64127,-0.16488 -2.03281,-3.73487 -2.20609,-4.07277"
       id="path36" />
    <path
       style="fill:none;stroke:#000000;stroke-width:2;stroke-linecap:round;stroke-linejoin:round"
       d="m 517.5823,370.30077 c 0.71651,1.17092 1.5524,2.27668 2.14954,3.51275 0.35354,0.73181 0.442,1.56434 0.6788,2.34181 1.62748,5.34354 3.29093,10.66105 4.80819,16.03636 4.47005,15.83641 8.62636,31.75597 13.06688,47.60006 2.25053,8.03003 5.43353,15.72274 7.91935,23.67275 1.92204,6.14697 3.31538,12.38497 4.86477,18.63273 1.62466,6.55129 3.34254,13.08079 5.091,19.60002 1.40059,5.22215 2.93915,8.98079 3.33744,14.35638"
       id="path37" />
    <path
       style="fill:none;stroke:#000000;stroke-width:2;stroke-linecap:round;stroke-linejoin:round"
       d="m 540.26556,369.12984 c 4.57904,9.50635 6.72844,20.00979 9.72949,30.08734 4.79783,16.1111 10.75832,31.80739 15.89528,47.80368 3.88393,12.09442 6.90963,24.42354 10.12542,36.70546 1.97264,7.53398 3.98906,15.04974 5.88297,22.60368 0.79148,3.15688 1.6019,6.308 2.37582,9.46908 0.14132,0.57721 0.5091,1.28687 0.5091,1.88365 0,0.0761 -0.14427,-0.081 -0.1697,-0.15274 -0.218,-0.61472 -1.18723,-3.99395 -1.35763,-4.58182"
       id="path38" />
    <path
       style="fill:none;stroke:#000000;stroke-width:2;stroke-linecap:round;stroke-linejoin:round"
       d="m 563.96706,362.2062 c 0.22626,1.25577 0.31343,2.54474 0.67879,3.7673 0.75354,2.52143 2.08624,4.83302 3.05462,7.27999 2.50607,6.33252 2.98139,7.50877 4.92131,13.64366 4.00575,12.66793 7.21825,25.58242 10.35171,38.4873 1.45136,5.97733 3.25414,14.12909 4.86472,19.85458 2.65201,9.42767 5.97009,18.65071 8.71131,28.05091 2.69001,9.22463 5.12132,18.41508 6.67487,27.89822 0.22745,1.38839 0.37114,2.79027 0.62226,4.17458 0.16547,0.91219 1.77131,7.33064 1.18789,2.34181"
       id="path39" />
    <path
       style="fill:none;stroke:#000000;stroke-width:2;stroke-linecap:round;stroke-linejoin:round"
       d="m 587.78168,361.49349 c 5.42219,15.14445 9.35019,30.81397 12.95377,46.48005 0.78759,3.42397 3.42583,15.19521 4.01623,17.56365 4.13485,16.58745 9.4392,32.75934 12.38818,49.6364 0.89722,5.13482 1.43974,10.49219 2.65864,15.57823 0.8968,3.74202 1.96304,7.51471 2.94141,11.25091 2.01873,7.70906 0.88064,3.16876 2.43241,9.62181 0.22454,0.93375 0.43821,1.87025 0.67879,2.79999 0.0801,0.30949 0.35862,1.22696 0.28286,0.91638 -0.97852,-4.01191 -0.5506,-2.52315 -2.65864,-6.72002"
       id="path40" />
    <path
       style="fill:none;stroke:#000000;stroke-width:2;stroke-linecap:round;stroke-linejoin:round"
       d="m 474.19557,280.64978 c 2.0804,3.54224 1.8771,2.80703 3.11116,6.05819 3.65986,9.64192 6.365,19.5987 9.95578,29.27277 6.71261,18.08475 13.68699,36.17705 19.51552,54.57458 3.69551,11.66474 6.62843,23.5742 9.61638,35.43276 1.60126,6.3551 3.26291,12.69426 4.69502,19.09094 0.48417,2.16257 1.75013,11.19684 2.65864,12.01455"
       id="path41" />
    <path
       style="fill:none;stroke:#000000;stroke-width:2;stroke-linecap:round;stroke-linejoin:round"
       d="m 494.95557,279.02069 c 5.44123,10.29924 8.4845,21.63782 11.82246,32.73459 7.16005,23.80296 14.77013,47.4466 22.17417,71.17096 2.10157,6.73394 4.00181,13.5297 6.10924,20.26182 2.82814,9.03441 5.93082,17.72793 8.14562,26.93095 0.18093,0.75178 0.94749,4.28989 1.35759,5.6509 0.25008,0.82993 1.01819,3.25953 1.01819,2.39274 0,-0.60939 -1.01083,-4.27178 -1.18789,-4.93818"
       id="path42" />
    <path
       style="fill:none;stroke:#000000;stroke-width:2;stroke-linecap:round;stroke-linejoin:round"
       d="m 515.88531,279.83521 c 2.91232,7.73559 5.56946,15.53923 7.74965,23.52006 6.95875,25.47334 -2.57098,-8.11535 6.50517,24.69091 3.23092,11.67832 6.97431,23.28342 10.97392,34.72005 3.5128,10.04459 7.81946,19.77741 11.31337,29.83275 3.3749,9.71285 6.48175,19.56341 9.55979,29.37458 0.01,0.0316 2.24732,6.5409 0.73538,3.30908"
       id="path43" />
    <path
       style="fill:none;stroke:#000000;stroke-width:2;stroke-linecap:round;stroke-linejoin:round"
       d="m 535.51395,275.7116 c 3.58347,10.49392 6.48713,21.18828 9.44668,31.8691 1.55955,5.62831 4.04554,14.25495 5.65664,19.49821 2.51374,8.18091 5.54178,16.19676 8.03251,24.38548 3.47189,11.4145 6.31733,22.99885 9.61633,34.4655 1.94256,6.75194 4.10209,13.45622 6.50517,20.05819 1.7235,4.73496 3.57921,9.42355 4.86477,14.30545 0.77881,2.95751 1.4235,6.49908 2.03639,9.46912 1.22551,5.93885 -0.0937,-0.76105 0.67879,3.41089 0.0754,0.40729 0.50768,1.52581 0.22628,1.22186 -0.64702,-0.69886 -0.73637,-1.75706 -1.07477,-2.64729"
       id="path44" />
    <path
       style="fill:none;stroke:#000000;stroke-width:2;stroke-linecap:round;stroke-linejoin:round"
       d="m 630.37644,417.90083 c 1.52098,5.01859 2.0623,10.24999 3.1112,15.37457 3.19972,15.63273 7.55991,30.99422 10.74765,46.63275 0.87391,4.28726 1.81026,8.60664 2.48894,12.93093 0.0373,0.2378 0.99995,10.00769 1.30105,10.64001 0.12328,0.25888 0.32341,-0.48624 0.39594,-0.76364 0.35915,-1.3738 0.53036,-2.79067 0.84849,-4.17454"
       id="path45" />
    <path
       style="fill:none;stroke:#000000;stroke-width:2;stroke-linecap:round;stroke-linejoin:round"
       d="m 654.75669,407.61718 c 1.72441,6.0724 1.52814,12.40378 2.14955,18.63272 1.57031,15.74058 3.27024,31.51429 5.37391,47.19278 0.66545,4.95958 1.40993,9.90827 2.09292,14.86547 0.4087,2.96641 0.61885,8.6216 1.07482,6.16003"
       id="path46" />
    <path
       style="fill:none;stroke:#000000;stroke-width:2;stroke-linecap:round;stroke-linejoin:round"
       d="m 672.1793,408.07535 c 1.2793,4.23511 2.1228,8.57664 2.88487,12.93094 2.89854,16.56159 4.11137,33.51694 5.65669,50.24731 1.23424,13.36261 0.16978,2.60793 1.18789,14.61092 0.1887,2.2247 0.37279,4.45038 0.62225,6.66909 0.0713,0.634 -0.0599,1.38605 0.3394,1.88365 0.41194,0.51336 0.39594,-1.27632 0.39594,-1.93453"
       id="path47" />
    <path
       style="fill:none;stroke:#000000;stroke-width:2;stroke-linecap:round;stroke-linejoin:round"
       d="m 691.69482,404.96989 c -0.61032,6.74324 1.07127,13.35745 2.26271,19.95639 2.95032,16.34069 4.17401,32.99125 5.48698,49.53459 0.4476,5.63974 0.84222,11.24497 1.58383,16.85093 0.19457,1.4708 0.39035,2.91739 0.62225,4.3782 0.001,0.008 0.21373,1.53827 0.22624,1.47636 0.34624,-1.71335 0.0566,-3.49567 0.0566,-5.24366"
       id="path48" />
    <path
       style="fill:none;stroke:#000000;stroke-width:2;stroke-linecap:round;stroke-linejoin:round"
       d="m 710.70125,402.88262 c 1.42976,12.4521 4.72332,24.63271 6.3921,37.06187 1.3042,9.71378 1.64815,19.50267 2.26262,29.27272 0.31397,4.99202 1.19834,9.89179 1.64045,14.86547 0.32506,3.65693 -0.0565,7.19708 -0.0565,10.84367 0,0.64486 -0.0385,-1.29086 0,-1.93457 0.0966,-1.61463 0.26396,-3.22425 0.39594,-4.83637"
       id="path49" />
    <path
       style="fill:none;stroke:#000000;stroke-width:2;stroke-linecap:round;stroke-linejoin:round"
       d="m 730.95219,400.33714 c 0.57391,5.44798 1.33688,10.87257 1.69699,16.34188 0.98996,15.03526 1.42917,30.11063 2.26262,45.15639 0.4022,7.26062 0.77735,14.52573 1.13136,21.7891 0.11662,2.39279 0.16043,4.7926 0.39602,7.17819 0.0778,0.78796 0.22623,1.54892 0.22623,2.34182 0,0.15272 0,0.61089 0,0.45817 0,-1.17122 -0.007,-0.40739 0.0565,-2.29089"
       id="path50" />
    <path
       style="fill:none;stroke:#000000;stroke-width:2;stroke-linecap:round;stroke-linejoin:round"
       d="m 752.22124,399.98078 c 0.59761,6.23683 1.03026,12.47823 1.35768,18.73458 0.86646,16.55648 1.88668,33.09367 2.99804,49.6364 0.29037,4.32212 0.93571,8.60175 1.13127,12.93094 0.0736,1.62842 -0.18378,6.47859 0.1697,4.88729"
       id="path51" />
    <path
       style="fill:none;stroke:#000000;stroke-width:2;stroke-linecap:round;stroke-linejoin:round"
       d="m 769.13475,396.92625 c 0.87493,15.55448 3.56471,30.95799 4.86473,46.48006 0.74448,8.88912 0.61532,17.91273 0.84849,26.8291 0.0818,3.12951 0.17002,6.29667 -0.11307,9.41819 -0.15595,1.71946 -0.86014,3.889 -0.62226,5.60001"
       id="path54" />
    <path
       style="fill:none;stroke:#000000;stroke-width:2;stroke-linecap:round;stroke-linejoin:round"
       d="m 787.40585,397.7917 c 0.43365,1.57819 0.96428,3.13289 1.30096,4.73456 0.11877,0.56502 0.55261,6.04517 0.56572,6.26181 0.39608,6.54569 0.55441,13.10319 0.90503,19.65096 0.67957,12.69075 1.82568,25.32598 2.31925,38.02912 0.21514,5.53711 0.73098,11.05083 0.79196,16.59638 0.0172,1.56897 0.0953,3.16431 0.0565,4.73452 -0.0147,0.59645 -0.14604,2.378 -0.1697,1.78184 -0.0841,-2.11989 -0.0754,-4.24244 -0.11307,-6.36366"
       id="path55" />
    <path
       style="fill:none;stroke:#000000;stroke-width:2;stroke-linecap:round;stroke-linejoin:round"
       d="m 806.63851,400.48988 c -0.39094,5.305 0.1335,10.62054 0.22624,15.93459 0.17797,10.19766 0.17025,20.39725 0.22632,30.59639 0.0422,7.67776 0.28044,15.27322 0.0565,22.96 -0.13858,4.75758 -0.1697,9.49622 -0.1697,14.25456 0,1.94445 -0.0653,3.20727 0.0565,3.20727 0.0775,0 -0.12599,-2.00424 -0.22624,-2.54544"
       id="path56" />
    <path
       style="fill:none;stroke:#000000;stroke-width:2;stroke-linecap:round;stroke-linejoin:round"
       d="m 823.38232,398.65716 c 0.31742,5.23625 0.19999,10.49705 -0.11316,15.73092 -0.70622,11.80345 -1.37146,23.5544 -1.52729,35.38184 -0.0931,7.06333 0.36465,14.17675 -0.0566,21.22913 -0.24041,4.02451 -0.7361,8.03606 -0.90503,12.06548 -0.0914,2.18045 0.11316,4.29541 0.11316,6.46543 0,1.18803 -0.0566,-2.3756 -0.0566,-3.56363"
       id="path57" />
    <path
       style="fill:none;stroke:#000000;stroke-width:2;stroke-linecap:round;stroke-linejoin:round"
       d="m 840.35228,399.26807 c -1.3271,5.42194 -1.42027,11.05249 -1.86669,16.59638 -0.53779,6.67866 -1.20398,13.36519 -1.52729,20.05819 -0.37711,7.80703 -0.23106,15.61713 -0.79195,23.41821 -0.30969,4.3073 -0.61059,8.5029 -0.6788,12.82913 -0.0267,1.69595 0,3.39465 0,5.09087 0,0.44283 -0.017,1.75596 -0.11307,1.32367 -0.11893,-0.53519 -0.15088,-1.08606 -0.22632,-1.6291"
       id="path58" />
    <path
       style="fill:none;stroke:#000000;stroke-width:2;stroke-linecap:round;stroke-linejoin:round"
       d="m 855.28594,391.63171 c -2.82359,22.28044 -4.19207,44.70747 -6.44864,67.04731 -0.55487,5.49322 -1.85492,10.88941 -2.26262,16.39276 -0.14379,1.941 -0.29797,3.82665 -0.62226,5.75275 -0.0222,0.13215 -0.1697,2.11444 -0.1697,1.2727"
       id="path59" />
    <path
       style="fill:none;stroke:#000000;stroke-width:2;stroke-linecap:round;stroke-linejoin:round"
       d="m 870.84177,393.87172 c -0.3394,1.10302 -0.75794,2.18474 -1.01819,3.30908 -0.3571,1.54272 -0.20153,3.36356 -0.39594,4.93818 -0.39244,3.17862 -0.9285,6.36429 -1.47075,9.52 -3.19735,18.60743 -5.92269,37.28283 -9.33351,55.84732 -0.80887,4.4025 -1.43422,8.838 -2.26262,13.23637 -0.12296,0.65281 -0.74861,4.5695 -0.45256,4.68368 0.43727,0.16865 1.73214,-5.91019 2.03638,-7.38185"
       id="path60" />
    <path
       style="fill:none;stroke:#000000;stroke-width:2;stroke-linecap:round;stroke-linejoin:round"
       d="m 574.26219,326.92618 c -0.0578,5.79735 2.78662,10.93497 3.95969,16.54549 1.57967,7.55518 2.76954,15.17086 4.46879,22.70545 2.70104,11.97653 6.10563,23.77887 8.65468,35.78912 1.41058,6.64618 3.06414,13.30729 4.18597,20.00732 0.33489,2.00009 0.57106,4.02616 1.0182,6.00725 0.10857,0.48105 -0.0269,1.67919 0.39597,1.42548 0.49582,-0.29746 0.11312,-1.15271 0.11312,-1.73091 0,-1.87012 -0.14967,-5.636 -0.22628,-7.73821"
       id="path61" />
    <path
       style="fill:none;stroke:#000000;stroke-width:2;stroke-linecap:round;stroke-linejoin:round"
       d="m 598.02027,325.8571 c 2.90992,12.82921 4.93611,25.84158 7.7496,38.69092 2.27571,10.39328 4.92163,20.69644 7.12743,31.10549 1.45195,6.85165 2.87663,13.7093 4.29909,20.56729 0.40947,1.97412 0.85476,3.63911 1.58383,5.49821 0.27168,0.69278 0.472,1.41541 0.79196,2.08727 0.0332,0.0698 0.21855,0.12786 0.22632,0.0509 0.20327,-2.01232 -0.20756,-4.03992 -0.33949,-6.05818"
       id="path62" />
    <path
       style="fill:none;stroke:#000000;stroke-width:2;stroke-linecap:round;stroke-linejoin:round"
       d="m 614.93369,325.95891 c 0.687,7.11023 2.12376,14.20916 3.2809,21.28001 2.53862,15.51262 5.60674,30.95352 8.37186,46.42913 1.29616,7.25426 1.91697,14.56987 3.05466,21.84004 0.30673,1.96007 0.72722,3.91514 1.13127,5.85456 0.39956,1.9179 0.57302,2.8591 0.79195,2.34182 0.21237,-0.50177 0.002,-2.14798 -0.0565,-2.74911"
       id="path63" />
    <path
       style="fill:none;stroke:#000000;stroke-width:2;stroke-linecap:round;stroke-linejoin:round"
       d="m 627.83096,324.58436 c 0.65995,2.01939 1.41954,4.00891 1.97985,6.05818 0.93735,3.42824 1.28124,6.99171 1.92322,10.48732 1.7816,9.70083 3.41779,19.45315 5.37382,29.11998 2.24526,11.09619 5.34831,21.9688 7.46683,33.09095 2.62506,13.7814 0.42577,2.60753 2.82834,14.4073 0.34772,1.70772 1.57176,5.7291 1.30106,7.43274 -0.13403,0.84347 -0.63654,-2.30268 -1.41413,-6.7709"
       id="path64" />
    <path
       style="fill:none;stroke:#000000;stroke-width:2;stroke-linecap:round;stroke-linejoin:round"
       d="m 651.98498,322.19162 c 0.95933,5.20794 1.89404,10.423 2.54548,15.68004 1.49778,12.08705 3.05501,24.1644 4.58186,36.24729 0.90103,7.13032 1.44415,14.30547 2.37587,21.43275 0.86393,6.60873 1.88453,13.19761 2.77172,19.80365 0.006,0.0449 1.67134,10.11223 1.01828,5.70182"
       id="path65" />
    <path
       style="fill:none;stroke:#000000;stroke-width:2;stroke-linecap:round;stroke-linejoin:round"
       d="m 669.23779,323.61709 c 1.58336,6.1893 1.5666,12.6546 2.26271,18.98913 1.78324,16.22732 4.97427,32.21006 7.57991,48.31277 1.08241,6.68925 1.6767,13.4783 2.4324,20.2109 0.24611,2.19261 0.58966,4.41099 0.6788,6.6182 0.0226,0.55986 0.0254,1.12054 0.0565,1.67999 0.007,0.12009 0.0288,0.47336 0.0566,0.35635 0.2417,-1.01511 0.0626,-3.84133 0.0565,-4.17453"
       id="path66" />
    <path
       style="fill:none;stroke:#000000;stroke-width:2;stroke-linecap:round;stroke-linejoin:round"
       d="m 690.84633,318.42437 c 1.55428,6.70258 2.38323,13.55036 3.2809,20.36363 1.53468,11.64813 2.85193,23.30959 4.24247,34.97459 0.71903,6.03194 1.69661,12.0365 2.37578,18.07274 0.76225,6.77468 1.30105,13.69315 1.30105,20.51637 0,0.39211 0.0821,-0.78 0.11316,-1.17089 0.0458,-0.57639 0.0754,-1.15394 0.11316,-1.73091"
       id="path67" />
    <path
       style="fill:none;stroke:#000000;stroke-width:2;stroke-linecap:round;stroke-linejoin:round"
       d="m 680.2683,319.74799 c 1.16704,6.38105 1.55647,12.87032 2.48894,19.29455 2.39097,16.4725 5.48263,32.88035 6.84466,49.48371 0.43393,5.2897 1.36362,10.56479 2.03638,15.83273 0.23144,1.81224 0.37968,3.67532 0.8485,5.44728 0.1993,0.7533 0.28286,1.24031 0.28286,2.08727 0,0.10356 -0.0493,0.40878 -0.0566,0.30548 -0.0604,-0.85185 -0.13567,-3.40923 -0.16969,-4.48002"
       id="path68" />
    <path
       style="fill:none;stroke:#000000;stroke-width:2;stroke-linecap:round;stroke-linejoin:round"
       d="m 705.61029,319.74799 c 1.74594,6.52794 2.61777,13.22952 3.56367,19.90546 2.74917,19.40291 6.04394,38.70259 8.59819,58.13825 0.69326,5.27515 0.88483,10.58885 1.35759,15.88367 0.23809,2.66668 0.21588,2.48805 0.45247,4.58182 0.0556,0.49223 0.10899,0.98473 0.1697,1.47636 0.0168,0.13603 0.0566,0.54435 0.0566,0.40729 0,-0.84346 -0.0817,-1.46324 -0.22632,-2.34182"
       id="path69" />
    <path
       style="fill:none;stroke:#000000;stroke-width:2;stroke-linecap:round;stroke-linejoin:round"
       d="m 721.78838,315.47164 c 2.21733,7.75185 3.55308,15.86871 4.1293,23.92726 0.61557,8.6087 1.37295,16.78348 2.31925,25.35278 1.07497,9.73448 1.70491,19.50238 2.9415,29.22185 0.40388,3.17447 1.53615,6.08663 2.09301,9.21453 0.95576,5.36859 1.04977,10.75592 1.75352,16.1382 0.009,0.0673 0.007,-0.1361 0,-0.20362 -0.0874,-0.84923 -0.17366,-1.69877 -0.28286,-2.54548 -0.13594,-1.05414 -0.30164,-2.10423 -0.45247,-3.15634"
       id="path70" />
    <path
       style="fill:none;stroke:#000000;stroke-width:2;stroke-linecap:round;stroke-linejoin:round"
       d="m 737.45737,313.79162 c 1.94803,6.40437 2.46674,13.11592 3.05458,19.75276 0.76495,8.63652 1.07597,17.31652 1.69698,25.96365 0.64781,9.02026 1.58174,18.00464 2.14955,27.03276 0.32831,5.22001 0.63518,10.41955 1.07482,15.62912 0.1563,1.85218 0.26804,3.50227 0.84849,5.24361 0.24922,0.74767 0.17175,1.57624 0.11307,2.34181 -0.007,0.0867 -0.039,0.33969 -0.0565,0.25455 -0.099,-0.48115 -0.26433,-1.95467 -0.3394,-2.59636"
       id="path71" />
    <path
       style="fill:none;stroke:#000000;stroke-width:2;stroke-linecap:round;stroke-linejoin:round"
       d="m 752.95666,312.5698 c 0.45253,1.13698 0.97309,2.24919 1.35759,3.41094 0.71937,2.17352 0.6062,4.86277 0.79196,7.12726 0.43495,5.30213 0.96987,10.58699 1.47075,15.88366 1.2945,13.68889 2.37836,27.37291 3.39397,41.08366 0.42466,5.73288 0.3394,11.46177 0.3394,17.20729 0,3.71814 0.48453,8.16374 -0.39593,11.86182 -0.0314,0.13205 0.003,-0.27153 0,-0.40724 -0.0161,-0.78067 -0.0459,-1.56106 -0.0566,-2.34182 -0.027,-1.9684 -0.0377,-3.93699 -0.0565,-5.90549"
       id="path72" />
    <path
       style="fill:none;stroke:#000000;stroke-width:2;stroke-linecap:round;stroke-linejoin:round"
       d="m 767.94686,313.84254 c -0.41268,9.71484 0.91945,19.42279 1.47075,29.12004 0.34472,6.06351 0.73533,12.14977 0.73533,18.22547 0,9.74927 -0.54762,19.4857 -0.96165,29.22185 -0.19319,4.54289 -0.11308,9.09793 -0.11308,13.64361 0,1.91143 0.18052,11.17227 0.6788,7.58547"
       id="path73" />
    <path
       style="fill:none;stroke:#000000;stroke-width:2;stroke-linecap:round;stroke-linejoin:round"
       d="m 783.38953,310.88982 c 0.0766,7.30968 -0.18321,14.59435 -0.56563,21.89092 -0.53625,10.23156 -0.27047,20.41854 -0.56564,30.64728 -0.21561,7.47203 -0.83765,14.92561 -1.01819,22.40005 -0.20014,8.28566 0.36751,17.6406 -1.24451,25.86184 -0.0136,0.0691 -0.0488,-0.13364 -0.0565,-0.20367 -0.0866,-0.77944 -0.16669,-1.55984 -0.22632,-2.34181 -0.0724,-0.94923 -0.11314,-1.90061 -0.1697,-2.85091"
       id="path74" />
    <path
       style="fill:none;stroke:#000000;stroke-width:2;stroke-linecap:round;stroke-linejoin:round"
       d="m 810.65474,326.41708 c -0.5776,5.97814 -1.27379,11.94344 -1.86668,17.92005 -1.77694,17.91232 -4.07016,35.75066 -5.31729,53.70912 -0.35818,5.1579 -0.71364,10.35145 -1.75361,15.42545 -0.35493,1.73173 -0.80661,3.43118 -1.01819,5.19277 -0.0631,0.52532 -0.18486,1.97089 0.1697,1.57818 0.96448,-1.06829 1.47558,-2.97657 2.14955,-4.22547"
       id="path75" />
    <path
       style="fill:none;stroke:#000000;stroke-width:2;stroke-linecap:round;stroke-linejoin:round"
       d="m 824.96615,338.27894 c -1.99093,6.55999 -2.11616,13.48094 -2.82834,20.26182 -1.58858,15.12514 -4.63446,29.85431 -7.29713,44.80003 -0.89225,5.00823 -1.56421,10.05582 -2.43232,15.06914 -0.79532,4.59289 -1.45565,9.09732 -1.75362,13.74546 -0.0257,0.40179 -0.19038,2.18441 -0.11316,2.24001 0.15755,0.11343 0.22293,-0.32445 0.28286,-0.5091 0.43159,-1.32957 0.79193,-2.68123 1.18789,-4.02184"
       id="path76" />
    <path
       style="fill:none;stroke:#000000;stroke-width:2;stroke-linecap:round;stroke-linejoin:round"
       d="m 841.20086,346.78075 c -1.25937,7.62054 -3.16668,15.10168 -4.97789,22.60364 -1.68151,6.96476 -3.48976,13.90325 -4.92135,20.92365 -1.64876,8.08544 -2.87167,16.24986 -4.52532,24.33459 -1.8626,9.10622 -4.08018,17.98436 -4.80819,27.28731 -0.0649,0.82951 0.33523,-1.62999 0.50909,-2.44367 0.20413,-0.9553 0.45253,-1.9006 0.6788,-2.85091"
       id="path77" />
    <path
       style="fill:none;stroke:#000000;stroke-width:2;stroke-linecap:round;stroke-linejoin:round"
       d="m 856.64353,359.55895 c -5.88147,26.15474 -13.16658,51.97447 -19.34583,78.04372 -1.2607,5.31868 -2.84952,10.82457 -3.67683,16.03636"
       id="path78" />
    <path
       style="fill:none;stroke:#000000;stroke-width:2;stroke-linecap:round;stroke-linejoin:round"
       d="m 869.14478,374.27169 c -1.68333,6.04305 -2.86274,12.21025 -4.46879,18.27636 -2.26307,8.54772 -4.36642,17.17062 -6.84457,25.65821 -2.27821,7.80278 -5.00911,15.43511 -7.35367,23.21459 -0.0401,0.13305 -3.00731,10.01252 -3.56367,13.13456 -0.12551,0.70431 -0.20874,5.56394 0.3394,1.78179"
       id="path79" />
    <path
       style="fill:none;stroke:#000000;stroke-width:2;stroke-linecap:round;stroke-linejoin:round"
       d="m 884.64408,387.04989 c -2.33503,8.52596 -4.92437,16.97689 -7.74961,25.35274 -4.03655,11.967 -8.50337,23.79341 -12.44471,35.78912 -1.8062,5.49726 -3.28937,11.04732 -4.52533,16.69819 -0.89915,4.11097 -0.43271,2.03001 -1.47075,6.16004 -0.30977,1.23247 -0.43724,1.95077 -0.45256,1.57817 -0.0713,-1.73252 0.51433,-3.69823 0.84849,-5.29454"
       id="path80" />
    <path
       style="fill:none;stroke:#000000;stroke-width:2;stroke-linecap:round;stroke-linejoin:round"
       d="m 527.48149,478.07543 c 1.11248,-0.66182 2.14927,-1.47176 3.33744,-1.98546 1.50374,-0.65014 3.20105,-0.7003 4.80818,-1.01819 6.90577,-1.36596 13.9902,-1.9095 20.98624,-2.59637 7.82425,-0.76818 15.57477,-1.91576 23.3621,-2.95272 4.76141,-0.63403 9.55145,-0.97606 14.3114,-1.6291 4.67386,-0.64123 9.29792,-1.5806 13.97196,-2.24001 5.34364,-0.75387 10.71379,-1.34174 16.06502,-2.03634 1.25079,-0.16235 7.09378,-0.99501 8.54156,-1.06912 8.0906,-0.41413 16.22352,-0.0204 24.32371,-0.30543 6.04084,-0.2126 12.01894,-0.89425 18.04477,-1.22181 5.56108,-0.3023 10.9264,-0.23353 16.51749,-0.71276 4.31011,-0.36944 8.57441,-1.17545 12.89727,-1.47636 5.34495,-0.37207 10.73405,-0.163 16.06493,-0.71272 8.84996,-0.91261 17.60042,-2.58724 26.47326,-3.36001 4.20069,-0.36585 8.41345,-0.19977 12.61442,-0.5091 8.93847,-0.65817 17.95478,-0.76508 26.86919,-1.67998 7.47399,-0.76707 14.92612,-2.2365 22.34386,-3.41094 2.78936,-0.44163 5.60153,-1.02396 8.42849,-1.12 0.43725,-0.0149 1.93777,0.3292 2.03638,-0.20362"
       id="path82" />
    <path
       style="fill:none;stroke:#000000;stroke-width:2;stroke-linecap:round;stroke-linejoin:round"
       d="m 517.92169,449.71904 c 17.87022,-1.16126 35.86681,-1.20309 53.68185,-3.20727 6.95073,-0.78196 13.73093,-2.6403 20.64688,-3.66549 8.08218,-1.19805 16.22893,-1.86212 24.32372,-2.95272 8.39148,-1.13058 16.68631,-2.98244 25.11567,-3.81818 3.25272,-0.32249 6.54275,-0.28103 9.78607,-0.71272 7.12033,-0.94771 14.07673,-2.24273 21.26905,-2.64729 8.72629,-0.49083 17.45765,0.13875 26.19049,-0.45817 19.40388,-1.32631 38.77274,-3.38444 58.15064,-5.04003 7.19562,-0.61477 14.33682,-0.90261 21.55191,-1.06908 4.23903,-0.0978 8.56122,0.11866 12.72749,-0.76364"
       id="path83" />
    <path
       style="fill:none;stroke:#000000;stroke-width:2;stroke-linecap:round;stroke-linejoin:round"
       d="m 525.84104,465.55177 c 16.95729,-0.58708 33.78146,-3.74279 50.62727,-5.70182 7.8492,-0.9128 15.71331,-1.27799 23.53176,-2.49456 7.99014,-1.24328 15.76738,-3.67653 23.81466,-4.58182 7.77238,-0.87436 15.62539,-1.10004 23.4186,-1.73091 8.06977,-0.65325 16.15603,-1.25883 24.21063,-2.08727 6.43736,-0.66209 12.84563,-1.64012 19.28921,-2.24 7.61607,-0.70904 15.28321,-0.73729 22.90958,-1.32363 10.18141,-0.78278 20.19755,-3.00508 30.37633,-3.81817 4.71246,-0.37644 4.87842,-0.23825 10.12547,0.40724 0.64711,0.0796 1.27124,0.35636 1.92323,0.35636 7.72962,0 15.45167,-1.46997 23.13582,-2.13816 4.60655,-0.40056 9.28644,-0.77003 13.91547,-0.66183 1.87381,0.0438 3.7214,0.35636 5.60014,0.35636"
       id="path84" />
    <path
       style="fill:none;stroke:#000000;stroke-width:2;stroke-linecap:round;stroke-linejoin:round"
       d="m 539.69988,489.6827 c 4.1208,-0.3225 5.77831,-0.41459 9.78608,-0.86546 7.40924,-0.83352 14.80485,-1.74858 22.23075,-2.44362 11.14159,-1.04283 22.27485,-1.73341 33.37436,-3.20728 11.919,-1.58268 23.62058,-3.73821 35.63708,-4.48001 4.5204,-0.27905 9.04712,0.21271 13.57607,-0.15273 5.09913,-0.41145 10.18318,-1.1737 15.27297,-1.67999 8.18322,-0.81399 16.39899,-1.25666 24.55004,-2.39274 8.09841,-1.12875 16.00759,-2.80945 24.04085,-4.27635 7.16568,-1.30847 14.42914,-1.98098 21.66507,-2.7491 6.04892,-0.64212 12.0908,-1.3742 18.15794,-1.83272 16.04425,-1.21254 32.167,-1.39741 48.19486,-2.90184 2.96412,-0.27822 5.86547,-1.09513 8.82442,-1.42543 1.36391,-0.15226 5.19579,-0.49164 6.95774,-0.40729 0.90972,0.0436 1.81673,0.15615 2.71518,0.30543 0.55242,0.0918 1.02773,0.62532 1.58391,0.56002 0.26207,-0.0308 0.45253,-0.27152 0.67879,-0.40728"
       id="path85" />
    <path
       style="fill:none;stroke:#000000;stroke-width:2;stroke-linecap:round;stroke-linejoin:round"
       d="m 554.52038,503.93726 c 6.815,0.16702 13.60269,-0.36876 20.36406,-1.17089 12.51817,-1.48507 24.92291,-3.85842 37.3906,-5.70182 6.9977,-1.03464 14.03163,-1.6642 21.0429,-2.59637 6.83374,-0.90855 13.5673,-2.49909 20.42056,-3.25819 15.3194,-1.69687 30.74711,-2.05863 46.10195,-3.36001 9.03504,-0.76576 17.95918,-2.49529 26.98235,-3.36001 10.66062,-1.02164 21.35488,-1.08189 32.01678,-2.18908 7.33991,-0.76222 14.71923,-1.5783 22.00447,-2.7491 6.42649,-1.03279 12.80015,-2.20902 19.28929,-2.79999 7.90032,-0.71948 15.83097,-2.00326 23.75808,-2.29093 7.59302,-0.27555 15.49962,0.22703 23.02266,-0.81453"
       id="path86" />
    <path
       style="fill:none;stroke:#000000;stroke-width:2;stroke-linecap:round;stroke-linejoin:round"
       d="m 507.23059,566.25005 c 4.2781,-1.47683 3.4939,-1.519 7.69307,-1.88365 3.61719,-0.3141 7.24854,0.0397 10.8608,0.20367 6.31468,0.28656 12.76943,0.15295 19.06301,-0.5091 10.78196,-1.1342 21.45956,-3.21036 32.24306,-4.42913 6.59515,-0.74539 13.25682,-0.51222 19.85496,-1.22181 6.33846,-0.68166 12.70065,-1.7169 19.00639,-2.64725 11.36715,-1.6771 22.54943,-4.43589 33.88355,-6.31273 8.11078,-1.34308 16.37722,-1.99564 24.54995,-2.85091 5.04041,-0.52748 10.17373,-0.83354 15.1599,-1.78184 6.84314,-1.30146 13.53408,-3.29858 20.42064,-4.3782 3.18998,-0.5001 11.85663,-1.41625 13.51944,-1.62906 3.53304,-0.45215 7.02943,-1.31531 10.52141,-1.98545 7.05819,-1.35453 14.09653,-2.82994 21.15598,-4.17458 4.96194,-0.94513 9.95573,-1.78324 14.93366,-2.64725 4.28788,-0.74424 8.75239,-1.35266 12.84065,-2.90184"
       id="path87" />
    <path
       style="fill:none;stroke:#000000;stroke-width:2;stroke-linecap:round;stroke-linejoin:round"
       d="m 506.43863,552.70821 c 1.62158,-0.40728 3.225,-0.89522 4.86473,-1.22182 2.78467,-0.55464 5.8258,-0.26075 8.65472,-0.40728 5.9169,-0.3065 3.59074,-0.21234 8.82442,-0.66179 3.65726,-0.31408 7.31995,-0.56654 10.97396,-0.91639 7.85182,-0.75176 15.5966,-2.26281 23.47522,-2.79998 7.83367,-0.53411 15.52754,-0.73678 23.30552,-1.98546 15.03941,-2.41442 29.52066,-7.18551 44.4615,-10.13091 16.24545,-3.20259 32.55993,-6.14815 48.9302,-8.60366 5.02301,-0.75344 10.10208,-1.45176 15.1599,-1.93453 4.31461,-0.41184 8.65689,-0.44653 12.95381,-1.0182 6.04842,-0.80468 12.10952,-2.07693 18.04486,-3.46182 5.14508,-1.20049 10.45732,-2.72905 15.72553,-3.51274 4.08271,-0.60734 8.23384,-0.71211 12.33155,-1.22182 4.87728,-0.60668 9.72054,-1.46065 14.59427,-2.08726"
       id="path88" />
    <path
       style="fill:none;stroke:#000000;stroke-width:2;stroke-linecap:round;stroke-linejoin:round"
       d="m 500.95165,534.07548 c 1.33874,-0.42424 2.63384,-1.02532 4.01623,-1.27274 1.95603,-0.35008 3.96057,-0.32949 5.93954,-0.50909 6.61962,-0.60076 13.20567,-1.38445 19.85493,-1.57817 10.09287,-0.29406 20.0882,-0.20192 30.15009,-1.22182 10.73739,-1.08836 21.53198,-2.62895 32.12994,-4.63275 7.27257,-1.37505 2.88472,-0.86751 11.7093,-2.59636 6.7767,-1.32765 13.44438,-1.97581 20.25094,-2.9018 6.19592,-0.84291 12.44238,-1.56363 18.61041,-2.5964 1.78585,-0.29903 7.06987,-1.31321 9.33351,-1.62906 7.45154,-1.03974 14.97696,-0.72423 22.45703,-1.42548 15.2651,-1.43109 30.6251,-2.98427 45.76255,-5.44728 10.47123,-1.70377 20.81428,-4.63109 31.05512,-7.33092"
       id="path89" />
    <path
       style="fill:none;stroke:#000000;stroke-width:2;stroke-linecap:round;stroke-linejoin:round"
       d="m 517.52572,585.90096 c 1.43303,-0.49212 2.82396,-1.1303 4.29909,-1.47636 2.38047,-0.55844 9.1527,-1.516 12.21839,-2.08727 9.02988,-1.68263 18.00687,-3.8346 27.09552,-5.19273 6.64218,-0.99255 13.33533,-1.49336 19.96808,-2.54543 12.05067,-1.91145 24.21615,-3.95152 36.14613,-6.5164 6.80377,-1.46277 12.1881,-2.9384 18.83673,-4.22546 2.84765,-0.55126 9.71753,-1.65089 13.01035,-2.24001 5.17774,-0.92635 10.22248,-2.04154 15.4993,-2.3927 6.15274,-0.40945 12.28993,-0.0892 18.44079,-0.30547 11.16347,-0.39246 22.21953,-1.81587 33.31783,-2.95273 8.71317,-0.89253 17.49298,-0.80612 26.1904,-1.83272 15.20036,-1.79416 30.20266,-5.13091 45.25345,-7.84002"
       id="path90" />
    <path
       style="fill:none;stroke:#000000;stroke-width:2;stroke-linecap:round;stroke-linejoin:round"
       d="m 522.05109,602.39558 c 11.77388,-2.36191 23.61559,-4.7906 35.58049,-5.95638 6.82131,-0.66462 13.68679,-0.42878 20.47718,-1.37459 8.84522,-1.23202 17.5946,-3.09793 26.41668,-4.48001 8.84504,-1.38568 17.67085,-2.98936 26.5298,-4.27635 15.22872,-2.21236 30.50454,-4.11693 45.76255,-6.10911 1.22681,-0.16018 8.58134,-1.26252 9.61628,-1.37455 12.58263,-1.36203 25.19419,-1.1674 37.78663,-2.34182 18.53155,-1.72832 36.56374,-5.81824 54.75666,-9.52 6.25359,-1.27243 12.47639,-2.3283 18.66703,-3.91999"
       id="path91" />
    <path
       style="fill:none;stroke:#000000;stroke-width:2;stroke-linecap:round;stroke-linejoin:round"
       d="m 488.67668,528.7809 c -5.05223,1.39862 -1.51344,0.2023 -4.01624,-0.50905 -1.82916,-0.51989 -1.36344,-1.88272 -0.28286,-3.41094 2.02189,-2.85944 7.77553,-4.46749 10.91739,-3.36001 0.98777,0.34819 1.54047,1.47028 2.03643,2.39275 1.88044,3.49753 -1.96846,12.9245 -5.93954,11.50546 -6.60105,-2.35885 -1.01975,-14.87603 5.03446,-12.72728 4.66481,1.65563 1.96552,6.16156 -1.24447,7.48362 -0.63888,0.26313 -4.09309,1.06081 -2.94146,-0.6109 0.47878,-0.695 1.19663,-1.26371 1.97981,-1.57818 4.26902,-1.71414 1.50481,8.22447 -1.41417,7.58548 -0.39985,-0.0875 -0.77224,-0.40078 -0.96162,-0.76365 -0.41863,-0.80215 -0.36991,-1.796 -0.79195,-2.59636 -0.6463,-1.22563 -2.61522,-4.77569 -2.37578,-3.41094 0.29171,1.66274 2.07694,2.75639 2.54548,4.3782 0.16464,0.56991 -1.92832,1.079 -2.09297,0.5091 -0.45408,-1.57179 -1.34907,-3.51876 -0.45251,-4.8873 2.2478,-3.43113 7.10282,-6.53101 7.57994,-1.22181 0.30432,3.38621 -2.45591,8.81848 -6.73145,7.22911 -1.9634,-0.72986 -3.81956,-1.74759 -5.6001,-2.85091 -0.54683,-0.33885 -0.98863,-0.86309 -1.30105,-1.42544 -2.07886,-3.74187 10.66606,-11.07205 13.23663,-9.01095 3.80244,3.04884 -1.44093,15.44619 -7.41025,13.84728 -1.30169,-0.34866 -2.88575,-2.52966 -3.33744,-3.56363 -2.36872,-5.42223 -0.004,-9.49792 6.16578,-9.0109 8.04195,0.63483 8.80433,13.43763 1.18789,12.52365 -9.44543,-1.13346 -0.44931,-16.46707 5.88296,-9.92729 3.39829,3.50965 -1.71954,15.14258 -7.07085,8.4 -1.16601,-1.46916 -3.00546,-3.15737 -2.60206,-4.98911 1.05571,-4.79382 11.36044,-12.1013 14.59421,-4.73451 2.77497,6.32157 -6.23986,13.33473 -10.8608,9.77455 -1.65619,-1.27601 -2.48894,-3.36003 -3.73341,-5.04004 z"
       id="path92" />
    <path
       style="fill:none;stroke:#000000;stroke-width:2;stroke-linecap:round;stroke-linejoin:round"
       d="m 515.20647,625.10102 c 3.17402,-8.92295 12.48405,-4.64812 11.65276,3.30913 -0.14958,1.43185 -0.42686,3.79548 -1.58387,5.03995 -3.4724,3.73488 -9.1271,-1.20649 -10.01231,-4.73456 -0.29324,-1.16876 -0.16091,-2.41406 -0.0566,-3.61452 0.48262,-5.55329 -0.1706,-6.52749 5.93954,-7.8909 2.88899,-0.64465 5.24152,6.78208 2.14951,9.31634 -0.57395,0.47041 -1.24897,1.14698 -1.97981,1.01819 -2.15999,-0.38063 -4.8944,-0.61753 -6.10924,-2.44363 -2.36186,-3.55026 2.46271,-8.56637 5.88296,-7.94183 3.08187,0.56276 2.23019,5.63305 1.64045,7.58543 -0.75958,2.5147 -2.68477,5.23723 -5.54356,5.4982 -2.52772,0.23076 -4.36908,-1.61634 -1.97985,-5.1418 1.01919,-1.50387 3.13914,-2.69437 4.92131,-2.34186 1.10122,0.21782 0.40082,2.25115 0.22628,3.36005 -0.40963,2.60238 -3.05833,6.29644 -6.05266,6.16 -1.02454,-0.0467 -2.73513,-2.87945 -2.43236,-3.61451 0.61981,-1.50484 2.10402,-2.50189 3.33743,-3.56368 2.23456,-1.92363 6.70659,-6.94607 8.93758,-1.98546 2.54795,5.66538 -5.70179,10.81734 -7.91934,5.8036 -2.37273,-5.36457 -0.56605,-5.24326 4.63844,-9.92721 0.98068,-0.88258 2.08183,-1.89906 3.39402,-2.03638 0.70293,-0.0736 1.3708,0.82762 1.47075,1.52729 0.3884,2.71872 -8.25409,8.28009 -10.52145,6.61816 -1.32571,-0.97171 -0.64976,-3.22257 -0.96161,-4.83641 -0.14069,-0.72807 -0.46887,-1.45114 -0.39598,-2.18908 0.0349,-0.35335 0.99285,0.10447 0.96166,0.45817 -0.0796,0.90299 -0.41484,1.76489 -0.62226,2.64733"
       id="path93" />
    <path
       style="fill:none;stroke:#000000;stroke-width:2;stroke-linecap:round;stroke-linejoin:round"
       d="m 821.06308,588.95554 c -0.24514,-0.96728 0.23186,-3.14698 -0.73542,-2.90184 -0.96728,0.24514 -0.0903,3.4622 0.73542,2.90184 1.62865,-1.10532 1.56165,-3.64879 2.71518,-5.24366 0.80737,-1.11627 2.25262,0.82892 2.37578,1.06908 1.11896,2.18198 -2.00988,8.21412 -5.09096,4.17458 -2.43088,-3.18707 0.73553,-10.04164 2.65864,-7.22911 0.86416,1.26382 -0.60801,2.61068 -1.07482,3.56363 -0.58552,1.1953 -0.39473,4.26351 -1.58382,3.66548 -1.8764,-0.94369 -3.90779,-8.23785 -0.8485,-9.77455 0.92799,-0.46614 2.2393,1.89045 2.26262,1.93453 1.22383,2.31301 -0.0712,6.46179 -1.41412,7.84002 -2.28733,2.34748 -4.92135,1.29205 -4.92135,-0.86545 0,-1.91935 3.49634,-9.98379 5.71322,-10.33458 6.93152,-1.09681 1.51619,10.40001 -0.79187,11.20003 -6.12693,2.12371 -7.17261,-6.07057 -2.94151,-8.65455 0.51309,-0.31335 1.10401,-0.71005 1.69699,-0.61095 5.09493,0.85153 4.78839,12.01605 -4.41216,9.92729 -0.708,-0.16073 -0.5201,-1.36847 -0.62226,-2.08727 -0.59108,-4.15877 2.51549,-9.66345 7.35367,-8.65455 7.97118,1.66224 2.81473,17.41944 -4.2991,15.73093 -8.49979,-2.01748 -2.1778,-18.06725 2.77181,-17.10548 3.11531,0.60535 4.22698,4.9737 3.16774,7.53455 -0.60755,1.46882 -1.65402,2.73662 -2.71518,3.92003 -2.64301,2.94749 -4.19354,6.31937 -8.08909,4.22546 -1.8897,-1.01573 -1.08741,-5.16973 -0.96166,-6.05822 0.88993,-6.28755 3.89933,-10.67927 10.35171,-10.84363 0.74468,-0.019 1.52003,0.0663 2.20617,0.35636 2.83707,1.19926 2.39735,4.89209 1.86669,7.28 -0.22685,1.02078 -0.1424,2.2883 -0.90512,3.00365 -1.19398,1.11981 -2.84578,1.82263 -4.4687,2.03638 -1.61165,0.21226 -3.39076,-0.0187 -4.80819,-0.81457 -0.86472,-0.4855 -0.98144,-1.72967 -1.35759,-2.64725 -1.42285,-3.47089 -1.18912,-8.33013 2.71518,-10.13095 0.78574,-0.36242 1.69565,-0.67194 2.54548,-0.50905 6.3864,1.22405 8.33749,9.94226 7.01427,15.22182 -0.33243,1.32638 -2.56866,4.26841 -3.22428,5.04 -0.95869,1.12827 -3.15475,3.04329 -4.86472,2.7491 -0.7982,-0.13733 -1.47078,-0.6788 -2.20617,-1.0182"
       id="path94" />
    <path
       style="fill:none;stroke:#000000;stroke-width:2;stroke-linecap:round;stroke-linejoin:round"
       d="m 763.70431,499.60999 c 0.9805,-0.11879 3.06028,0.62414 2.9415,-0.35636 -0.11879,-0.9805 -2.45484,-0.50309 -2.9415,0.35636 -0.81114,1.43245 0.57661,3.41864 -0.0565,4.93818 -0.95769,2.29842 -6.59676,-9.45358 0.0565,-4.93818 2.72374,1.84852 2.74706,9.54885 -1.13127,7.68728 -1.17308,-0.56307 -1.12256,-3.92583 -1.01828,-4.27639 0.38317,-1.28813 3.4914,-3.33658 2.14955,-3.41089 -3.87503,-0.2146 -6.50785,7.47026 -9.44659,-0.0509 -0.25359,-0.649 -0.23057,-1.40045 -0.11317,-2.08727 0.65452,-3.82891 5.45409,-4.36251 8.54156,-3.56363 0.71404,0.18476 1.90673,0.13939 2.03639,0.86546 0.28961,1.6218 -0.64523,3.23168 -1.01819,4.83637 -0.8281,3.56288 0.16371,5.40208 -3.11112,5.70182 -0.514,0.0471 -1.07845,1.6e-4 -1.52737,-0.25455 -0.47177,-0.26766 -0.87031,-0.7194 -1.07473,-1.22181 -2.01705,-4.95744 6.13493,-9.0289 6.56171,-7.84002 0.41815,1.16482 -0.89966,2.37801 -0.84849,3.61456 0.146,3.5285 3.37619,6.43799 -1.07473,8.4 -0.98345,0.43351 -2.20922,0.35322 -3.22428,0 -2.05184,-0.71402 -1.51508,-6.83505 -0.11316,-7.73817 1.25022,-0.80539 3.43367,0.4581 4.41217,-0.66183 1.79348,-2.05274 -1.351,-6.72711 3.05466,-5.6509 5.28608,1.29127 3.27308,16.60785 -3.67684,15.37452 -0.57447,-0.10195 -1.00786,-0.66645 -1.30105,-1.17089 -2.65279,-4.56416 3.89838,-11.8296 6.95774,-14.15275 1.03885,-0.78886 3.27266,0.38319 3.56367,1.47636 1.69283,6.35898 -7.31371,13.10373 -11.76592,9.16365 -6.56849,-5.81293 6.52871,-13.65481 9.72953,-12.57454 0.8607,0.29048 1.59182,1.11965 1.86669,1.98546 0.41195,1.29758 -1.20184,4.74006 -1.69699,5.60001 -1.8116,3.14636 -8.30683,9.63256 -11.93562,5.03999 -1.15327,-1.45957 -2.09147,-3.94696 -2.6021,-5.80363 -0.29029,-1.05548 -1.06465,-2.83288 -0.28278,-4.02184 2.39365,-3.63991 9.69566,-3.01772 11.42644,1.01819 0.52039,1.21347 0.56567,2.5794 0.8485,3.8691"
       id="path95" />
    <path
       style="fill:none;stroke:#000000;stroke-width:2;stroke-linecap:round;stroke-linejoin:round"
       d="m 646.22149,509.92389 c 1.27969,4.57467 1.66839,9.31423 2.31925,14.00002 0.85097,6.12642 2.33033,12.17338 3.33744,18.27636 1.42326,8.62493 1.923,17.36841 2.71518,26.0655 0.40529,4.44961 1.548,8.72003 2.093,13.13451 0.13825,1.11978 1.14169,4.81332 0.6788,5.85457 -0.16001,0.35992 -0.47465,-0.63041 -0.6788,-0.96727"
       id="path96" />
    <path
       style="fill:none;stroke:#000000;stroke-width:2;stroke-linecap:round;stroke-linejoin:round"
       d="m 611.37637,433.15287 c 0.34885,3.69115 0.43918,7.40771 0.79187,11.09822 1.1907,12.45911 2.41913,24.91603 3.67684,37.3673 0.54422,5.38774 1.19576,10.82042 1.92331,16.18909 0.17873,1.31887 0.28014,2.68802 0.3394,4.02184 0.0199,0.44717 -0.1676,1.53635 0.22623,1.32363 0.94899,-0.51259 0.3882,-2.37241 0.0566,-3.05454"
       id="path97" />
    <path
       style="fill:none;stroke:#000000;stroke-width:2;stroke-linecap:round;stroke-linejoin:round"
       d="m 504.74796,440.43291 c -0.0189,1.13697 0.0384,2.27775 -0.0566,3.4109 -0.41265,4.92092 -2.30995,9.80291 -3.16774,14.66184 -1.95577,11.07848 -2.91489,22.35299 -5.88291,33.24365 -0.85664,3.14328 -2.42314,6.08132 -3.4506,9.16364 -1.21923,3.65761 -1.94281,7.26613 -2.77176,10.99641 -0.18335,0.82506 -1.36215,4.94232 -0.0566,3.76725"
       id="path98" />
    <path
       style="fill:none;stroke:#000000;stroke-width:2;stroke-linecap:round;stroke-linejoin:round"
       d="m 543.4962,517.25477 c -2.0914,5.98099 -2.41103,12.41044 -3.50714,18.63277 -0.78225,4.44065 -1.34854,8.89795 -2.43236,13.28729 -1.36255,5.51817 -3.02586,10.97718 -4.18593,16.54546 -1.38623,6.65382 -2.42067,13.38813 -4.41221,19.90546 -1.67448,5.47973 -2.86236,11.03726 -4.18598,16.59638 -0.44453,1.86702 -0.63282,3.89773 -1.301,5.70182 -0.41608,1.12341 -0.21426,-0.8373 -0.11317,-1.17089"
       id="path99" />
    <path
       style="fill:none;stroke:#000000;stroke-width:2;stroke-linecap:round;stroke-linejoin:round"
       d="m 650.63366,506.46207 c 0.11177,5.94766 1.90272,11.66337 2.71518,17.51272 0.80855,5.82115 1.35507,11.6676 1.92331,17.51276 0.85993,8.84568 2.61984,17.5876 3.22428,26.47274 0.33664,4.94858 2.54888,9.55958 2.9415,14.50911 0.0373,0.46968 0.27565,3.64381 0.11316,3.61456 -1.41344,-0.25441 -1.69715,-4.1891 -1.81015,-4.73456"
       id="path100" />
    <path
       style="fill:none;stroke:#000000;stroke-width:2;stroke-linecap:round;stroke-linejoin:round"
       d="m 615.9017,433.35654 c 1.02112,4.49757 1.77486,9.05093 2.82834,13.5418 3.13357,13.35803 3.96576,27.07999 4.80819,40.72735 0.25587,4.14497 0.83041,8.14084 1.52729,12.21817 0.19525,1.14241 0.28995,2.30601 0.3394,3.46182 0.002,0.0507 0.10719,2.2132 0.1697,2.1382 0.22804,-0.27363 0.14168,-1.52981 0.16969,-1.78184"
       id="path101" />
  </g>
</svg>
