<?xml version="1.0" encoding="UTF-8" standalone="no"?>
<!-- Created with Inkscape (http://www.inkscape.org/) -->

<svg
   width="837.47015"
   height="718.49506"
   viewBox="0 0 837.47015 718.49506"
   version="1.1"
   id="svg5"
   inkscape:version="1.3.2 (091e20ef0f, 2023-11-25, custom)"
   sodipodi:docname="costco-fetch-execute-latency.svg"
   xmlns:inkscape="http://www.inkscape.org/namespaces/inkscape"
   xmlns:sodipodi="http://sodipodi.sourceforge.net/DTD/sodipodi-0.dtd"
   xmlns="http://www.w3.org/2000/svg"
   xmlns:svg="http://www.w3.org/2000/svg">
  <sodipodi:namedview
     id="namedview7"
     pagecolor="#ffffff"
     bordercolor="#000000"
     borderopacity="0.25"
     inkscape:showpageshadow="2"
     inkscape:pageopacity="0.0"
     inkscape:pagecheckerboard="0"
     inkscape:deskcolor="#d1d1d1"
     inkscape:document-units="px"
     showgrid="false"
     inkscape:zoom="1"
     inkscape:cx="299"
     inkscape:cy="328"
     inkscape:window-width="2560"
     inkscape:window-height="1402"
     inkscape:window-x="0"
     inkscape:window-y="18"
     inkscape:window-maximized="1"
     inkscape:current-layer="layer1">
    <inkscape:grid
       id="grid2"
       units="px"
       originx="-346.31085"
       originy="-7.9761353"
       spacingx="1"
       spacingy="1"
       empcolor="#0099e5"
       empopacity="0.30196078"
       color="#0099e5"
       opacity="0.14901961"
       empspacing="5"
       dotted="false"
       gridanglex="30"
       gridanglez="30"
       visible="false" />
  </sodipodi:namedview>
  <defs
     id="defs2" />
  <g
     inkscape:label="Layer 1"
     inkscape:groupmode="layer"
     id="layer1"
     transform="translate(-346.31085,-7.9761353)">
    <path
       style="fill:none;stroke:#000000;stroke-width:2;stroke-linecap:round;stroke-linejoin:round"
       d="m 355.61359,-15.239258 c 0.57895,3.117164 0.50457,6.0361291 0.39996,9.1435549 -0.72111,21.4194701 -2.23495,42.9151151 -1.51996,64.3647761 0.1746,5.237791 0.79836,10.458703 0.96002,15.695221 0.44504,14.415469 0.08,28.917316 0.08,43.341826 0,12.8137 0.40002,25.62841 0.40002,38.44608 0,1.11588 -0.5494,3.05285 -0.16003,4.10379 0.0772,0.20849 0.32223,0.71698 0.16003,0.93594 -0.37336,0.50405 -1.30428,0.16407 -1.75994,0"
       id="path2" />
    <path
       style="fill:none;stroke:#000000;stroke-width:2;stroke-linecap:round;stroke-linejoin:round"
       d="m 354.57361,162.59186 c 2.8773,0.66699 4.29773,1.24283 6.7998,1.36792 6.54902,0.32742 13.12459,-0.0405 19.67939,0.216 5.18209,0.20278 10.33403,0.76562 15.51953,0.93594 7.84488,0.25768 15.67109,-0.11314 23.51922,-0.14398 9.20497,-0.0362 18.39026,0.4216 27.59918,0.35999 10.4903,-0.0702 20.95519,-1.01754 31.43897,-1.15195 22.23605,-0.28507 44.41902,1.01071 66.638,1.07993 10.81246,0.0337 21.59963,-0.6766 32.39893,-1.00794 15.40002,-0.47249 30.9194,0.46041 46.3186,0.79196 6.18956,0.13327 11.63962,0.41437 17.7594,0 18.33036,-1.24115 36.68719,-3.31985 54.95825,-5.18374 12.07112,-1.23142 24.09526,-3.02299 36.23889,-3.45584 10.68609,-0.3809 21.38965,-0.14023 32.07898,-0.21598 17.78939,-0.12605 35.57295,-0.90595 53.3584,-1.22393 11.0933,-0.19834 22.1844,0.0751 33.27893,-0.288 15.28422,-0.5002 30.56571,-1.09476 45.83862,-1.87189 11.71148,-0.59591 23.39591,-1.72766 35.1189,-2.08792 6.33438,-0.19466 9.87696,-0.14954 15.83948,-0.43197 6.21169,-0.29424 12.41966,-0.89213 18.6394,-1.00794 10.93708,-0.20364 21.79902,0.43947 32.71902,0.57596 9.2022,0.11502 18.6178,0.47883 27.7591,1.58392 6.1971,0.74916 12.3614,1.84815 18.5594,2.59189 1.7355,0.20826 15.6037,0.54076 16.7194,2.37586 0.5081,0.83562 0.3734,1.91992 0.5601,2.87988"
       id="path3" />
    <path
       style="fill:none;stroke:#000000;stroke-width:2;stroke-linecap:round;stroke-linejoin:round"
       d="m 1066.1514,-10.055511 c -5.3307,7.7094295 -3.1677,16.1857614 -2.8799,25.054748 0.2493,7.683331 0.1181,15.354142 0.08,23.038849 -0.067,13.476663 0.2505,26.920528 0.4001,40.389984 0.058,5.226412 -0.1741,10.472073 0,15.695221 0.2888,8.665879 1.4627,17.263969 1.8399,25.918699 0.355,8.14467 0.8,16.32708 0.8,24.47876 0,2.97644 -0.56,5.89156 -0.56,8.85556 0,1.48705 -0.5367,3.07294 -0.3199,4.53577 0.017,0.11519 0.2224,1.38525 0.1599,1.36795 -1.1487,-0.31809 -1.0941,-0.48175 -1.2,-0.71997"
       id="path4" />
    <path
       style="fill:none;stroke:#000000;stroke-width:2;stroke-linecap:round;stroke-linejoin:round"
       d="m 372.65308,29.326508 c 4.23986,-1.343934 8.39207,-3.004628 12.7196,-4.0318 2.98122,-0.707615 6.07764,-0.785439 9.11969,-1.151916 12.45319,-1.500239 24.94408,-2.384906 37.43884,-3.455841"
       id="path5" />
    <path
       style="fill:none;stroke:#000000;stroke-width:2;stroke-linecap:round;stroke-linejoin:round"
       d="m 388.57257,54.525269 c 16.68537,-1.881389 33.49,-1.627372 50.2384,-1.007966"
       id="path6" />
    <path
       style="fill:none;stroke:#000000;stroke-width:2;stroke-linecap:round;stroke-linejoin:round"
       d="m 362.25336,100.89093 c 15.78994,2.37353 31.7668,-0.0474 47.59851,-1.007934"
       id="path7" />
    <path
       style="fill:none;stroke:#000000;stroke-width:2;stroke-linecap:round;stroke-linejoin:round"
       d="m 383.37274,145.09674 c 16.66555,1.11055 33.30101,-0.59396 49.75842,-3.09585"
       id="path8" />
    <path
       style="fill:none;stroke:#000000;stroke-width:2;stroke-linecap:round;stroke-linejoin:round"
       d="m 436.97107,89.155518 c 16.2617,-2.175721 32.99782,-1.098057 49.35846,-0.64795"
       id="path9" />
    <path
       style="fill:none;stroke:#000000;stroke-width:2;stroke-linecap:round;stroke-linejoin:round"
       d="m 436.17108,130.48145 c 12.04118,-1.97 24.16865,-2.2326 36.31885,-1.72791"
       id="path10" />
    <path
       style="fill:none;stroke:#000000;stroke-width:2;stroke-linecap:round;stroke-linejoin:round"
       d="m 474.00989,154.96024 c 18.45853,-2.45308 37.31518,-3.46391 55.51825,-7.55964"
       id="path11" />
    <path
       style="fill:none;stroke:#000000;stroke-width:2;stroke-linecap:round;stroke-linejoin:round"
       d="m 498.3291,122.77783 c 18.02862,-3.05529 36.26184,-3.49936 54.47827,-4.46377"
       id="path12" />
    <path
       style="fill:none;stroke:#000000;stroke-width:2;stroke-linecap:round;stroke-linejoin:round"
       d="m 522.24835,94.339264 c 20.94419,-2.18393 41.75271,-4.852234 62.47809,-8.567566"
       id="path13" />
    <path
       style="fill:none;stroke:#000000;stroke-width:2;stroke-linecap:round;stroke-linejoin:round"
       d="m 482.48962,52.58136 c 15.10825,0.281911 30.26663,-0.261269 45.27857,-2.0159"
       id="path14" />
    <path
       style="fill:none;stroke:#000000;stroke-width:2;stroke-linecap:round;stroke-linejoin:round"
       d="m 482.00964,28.966553 c 1.43997,0.263977 2.86266,0.651774 4.31989,0.791931 7.03464,0.676591 14.13233,0.252465 21.19934,0.287994 18.8128,0.09458 8.87625,0.18445 28.71905,-0.287994"
       id="path15" />
    <path
       style="fill:none;stroke:#000000;stroke-width:2;stroke-linecap:round;stroke-linejoin:round"
       d="m 541.3678,65.252716 c 16.09069,0.278959 32.2669,-1.147884 48.15845,-3.671814"
       id="path16" />
    <path
       style="fill:none;stroke:#000000;stroke-width:2;stroke-linecap:round;stroke-linejoin:round"
       d="m 586.00635,41.277924 c 18.27177,4.389961 37.47039,3.420459 56.07824,2.159881"
       id="path17" />
    <path
       style="fill:none;stroke:#000000;stroke-width:2;stroke-linecap:round;stroke-linejoin:round"
       d="m 596.0061,83.323822 c 15.18901,-0.742314 30.20346,-3.455841 45.4386,-3.455841"
       id="path18" />
    <path
       style="fill:none;stroke:#000000;stroke-width:2;stroke-linecap:round;stroke-linejoin:round"
       d="m 578.32666,118.89005 c 9.46603,-0.56453 18.8763,-1.68524 28.31909,-2.51987"
       id="path19" />
    <path
       style="fill:none;stroke:#000000;stroke-width:2;stroke-linecap:round;stroke-linejoin:round"
       d="m 557.28723,147.25662 c 17.22201,-0.53781 34.39721,-1.92127 51.51843,-3.81582"
       id="path20" />
    <path
       style="fill:none;stroke:#000000;stroke-width:2;stroke-linecap:round;stroke-linejoin:round"
       d="m 622.08521,149.63251 c 18.0493,-1.40007 36.32307,-1.36987 53.91833,-6.3357 2.55621,-0.72142 4.85319,-2.15989 7.27979,-3.23983"
       id="path21" />
    <path
       style="fill:none;stroke:#000000;stroke-width:2;stroke-linecap:round;stroke-linejoin:round"
       d="m 645.76453,123.28183 c 10.29883,-0.47741 20.49364,-1.76666 30.71899,-3.02386"
       id="path22" />
    <path
       style="fill:none;stroke:#000000;stroke-width:2;stroke-linecap:round;stroke-linejoin:round"
       d="m 642.40466,98.299072 c 15.03231,1.843068 30.21727,-1.242783 45.03858,-3.743805"
       id="path23" />
    <path
       style="fill:none;stroke:#000000;stroke-width:2;stroke-linecap:round;stroke-linejoin:round"
       d="m 678.56348,64.892731 c 11.78057,0.197714 23.45535,-1.345523 35.11889,-2.73584"
       id="path24" />
    <path
       style="fill:none;stroke:#000000;stroke-width:2;stroke-linecap:round;stroke-linejoin:round"
       d="m 593.28613,24.286774 c 11.07017,0.836955 22.23408,-1.192129 33.19898,-2.591858"
       id="path25" />
    <path
       style="fill:none;stroke:#000000;stroke-width:2;stroke-linecap:round;stroke-linejoin:round"
       d="m 656.32422,40.773956 c 10.12709,0.270477 20.31633,-0.0717 30.39905,-1.079956"
       id="path26" />
    <path
       style="fill:none;stroke:#000000;stroke-width:2;stroke-linecap:round;stroke-linejoin:round"
       d="m 738.96167,44.44577 c 12.0209,0.386328 24.05409,0.212907 36.07886,0.143982"
       id="path27" />
    <path
       style="fill:none;stroke:#000000;stroke-width:2;stroke-linecap:round;stroke-linejoin:round"
       d="m 728.40198,73.388306 c 9.82265,-0.224281 19.57064,0.511047 29.35901,1.223938"
       id="path28" />
    <path
       style="fill:none;stroke:#000000;stroke-width:2;stroke-linecap:round;stroke-linejoin:round"
       d="m 706.64258,111.04242 c 9.19591,-0.49176 18.39873,-0.76682 27.59924,-1.15192"
       id="path29" />
    <path
       style="fill:none;stroke:#000000;stroke-width:2;stroke-linecap:round;stroke-linejoin:round"
       d="m 703.7627,148.26456 c 12.42271,-0.62078 24.85124,-0.32979 37.2788,-0.79196"
       id="path30" />
    <path
       style="fill:none;stroke:#000000;stroke-width:2;stroke-linecap:round;stroke-linejoin:round"
       d="m 778.56042,136.16916 c 11.17362,-0.39715 22.28818,-1.19699 33.27894,-3.23984"
       id="path31" />
    <path
       style="fill:none;stroke:#000000;stroke-width:2;stroke-linecap:round;stroke-linejoin:round"
       d="m 747.28137,114.13828 c 18.0024,-0.57641 35.99086,-1.7876 53.7583,-4.82377"
       id="path32" />
    <path
       style="fill:none;stroke:#000000;stroke-width:2;stroke-linecap:round;stroke-linejoin:round"
       d="m 781.92029,85.339722 c 9.93248,-0.09832 19.77332,-1.268908 29.59912,-2.591889"
       id="path33" />
    <path
       style="fill:none;stroke:#000000;stroke-width:2;stroke-linecap:round;stroke-linejoin:round"
       d="m 707.76257,24.502747 c 9.32226,1.54509 18.86348,0.251449 28.23914,-0.359955"
       id="path34" />
    <path
       style="fill:none;stroke:#000000;stroke-width:2;stroke-linecap:round;stroke-linejoin:round"
       d="m 809.91943,39.118042 c 9.9974,-0.792429 19.99528,-0.527098 29.99903,-0.144012"
       id="path35" />
    <path
       style="fill:none;stroke:#000000;stroke-width:2;stroke-linecap:round;stroke-linejoin:round"
       d="m 820.31909,61.940887 c 10.39989,-0.0821 6.08028,-0.015 12.9596,-0.143981"
       id="path36" />
    <path
       style="fill:none;stroke:#000000;stroke-width:2;stroke-linecap:round;stroke-linejoin:round"
       d="m 823.83899,105.6427 c 9.94901,1.5458 19.98093,1.11503 29.99902,1.43994"
       id="path37" />
    <path
       style="fill:none;stroke:#000000;stroke-width:2;stroke-linecap:round;stroke-linejoin:round"
       d="m 829.91882,148.26456 c 10.12223,-0.16825 20.1606,-1.07729 30.15906,-2.59186"
       id="path38" />
    <path
       style="fill:none;stroke:#000000;stroke-width:2;stroke-linecap:round;stroke-linejoin:round"
       d="m 868.63757,113.56232 c 11.98661,-0.62889 24.46776,0.87753 36.31885,-1.36795"
       id="path39" />
    <path
       style="fill:none;stroke:#000000;stroke-width:2;stroke-linecap:round;stroke-linejoin:round"
       d="m 871.99744,69.788483 c 10.13083,-0.320474 19.97925,-2.359274 29.75915,-4.823761"
       id="path40" />
    <path
       style="fill:none;stroke:#000000;stroke-width:2;stroke-linecap:round;stroke-linejoin:round"
       d="m 853.75806,20.398956 c 3.06657,-0.23998 6.13313,-0.47996 9.1997,-0.71994"
       id="path41" />
    <path
       style="fill:none;stroke:#000000;stroke-width:2;stroke-linecap:round;stroke-linejoin:round"
       d="m 876.39734,52.725342 c 12.17009,-1.907798 24.54135,-1.033656 36.79883,-0.863953"
       id="path42" />
    <path
       style="fill:none;stroke:#000000;stroke-width:2;stroke-linecap:round;stroke-linejoin:round"
       d="m 894.07678,32.782349 c 9.9566,-0.70344 19.85998,-1.760412 29.67908,-3.527832"
       id="path43" />
    <path
       style="fill:none;stroke:#000000;stroke-width:2;stroke-linecap:round;stroke-linejoin:round"
       d="m 951.59497,32.998322 c 8.50798,0.191209 17.00967,0.421781 25.51917,0.575988"
       id="path44" />
    <path
       style="fill:none;stroke:#000000;stroke-width:2;stroke-linecap:round;stroke-linejoin:round"
       d="m 942.71521,68.348572 c 12.03627,0.696795 24.10474,0.773555 36.15894,0.863952"
       id="path45" />
    <path
       style="fill:none;stroke:#000000;stroke-width:2;stroke-linecap:round;stroke-linejoin:round"
       d="m 902.71655,100.89093 c 11.74098,1.50596 23.49409,-1.058183 35.19886,-2.015899"
       id="path47" />
    <path
       style="fill:none;stroke:#000000;stroke-width:2;stroke-linecap:round;stroke-linejoin:round"
       d="m 908.23633,140.56094 c 9.55547,-0.41664 19.09414,-0.16414 28.63916,0.288"
       id="path48" />
    <path
       style="fill:none;stroke:#000000;stroke-width:2;stroke-linecap:round;stroke-linejoin:round"
       d="m 968.15442,122.34586 c 9.06709,2.07849 18.28854,2.10491 27.35925,-0.072"
       id="path49" />
    <path
       style="fill:none;stroke:#000000;stroke-width:2;stroke-linecap:round;stroke-linejoin:round"
       d="m 983.75403,97.867096 c 11.05852,-0.301023 22.09047,-1.396048 33.03897,-2.951843"
       id="path50" />
    <path
       style="fill:none;stroke:#000000;stroke-width:2;stroke-linecap:round;stroke-linejoin:round"
       d="m 1012.4731,141.92889 c 11.3414,-0.9679 22.7284,-1.11523 34.0789,-1.87191"
       id="path51" />
    <path
       style="fill:none;stroke:#000000;stroke-width:2;stroke-linecap:round;stroke-linejoin:round"
       d="m 1002.7933,67.772583 c 8.7437,-0.630331 17.4903,0.07202 26.2393,0.07202"
       id="path52" />
    <path
       style="fill:none;stroke:#000000;stroke-width:2;stroke-linecap:round;stroke-linejoin:round"
       d="m 1021.6729,117.37811 c 6.5904,-0.28355 13.1745,-0.69007 19.7592,-1.07995"
       id="path53" />
    <path
       style="fill:none;stroke:#000000;stroke-width:2;stroke-linecap:round;stroke-linejoin:round"
       d="m 1027.2726,51.501404 c 7.0401,-1.149593 14.1686,-1.26127 21.2794,-1.36792"
       id="path54" />
    <path
       style="fill:none;stroke:#000000;stroke-width:2;stroke-linecap:round;stroke-linejoin:round"
       d="m 989.11377,17.879089 c 7.17681,1.345027 14.26853,-0.735115 21.27943,-2.159881"
       id="path55" />
    <path
       style="fill:none;stroke:#000000;stroke-width:2;stroke-linecap:round;stroke-linejoin:round"
       d="m 1027.2726,33.358307 c 7.1083,0.362877 14.2409,0.503998 21.3594,0.503998"
       id="path56" />
    <path
       style="fill:none;stroke:#000000;stroke-width:2;stroke-linecap:round;stroke-linejoin:round"
       d="m 391.61255,330.91938 c 1.67995,0.45599 3.3315,1.03374 5.03985,1.36798 1.07576,0.21047 5.72601,-0.0626 6.15979,-0.072 3.50932,-0.0761 7.05223,-0.031 10.5597,0 14.78183,0.13047 29.737,0.0492 44.47857,-1.07996 14.34341,-1.09865 28.75347,0.0175 43.11865,-0.35998 6.97822,-0.18336 13.98773,-0.31772 20.95936,-0.64795 4.83365,-0.22896 9.63887,-0.77937 14.47955,-0.86396 12.87184,-0.22492 25.69383,-0.16192 38.55884,0.072 12.86482,0.23388 25.70266,1.27109 38.55871,1.58392 0.65215,0.0159 6.45852,0.45146 6.79981,0.14404 0.17238,-0.15527 -0.26311,-0.42162 -0.47998,-0.50403 -1.01494,-0.38567 -2.03487,-0.97577 -3.11988,-0.93591 -1.62422,0.0597 -3.14656,0.81596 -4.71985,1.22394"
       id="path57" />
    <path
       style="fill:none;stroke:#000000;stroke-width:2;stroke-linecap:round;stroke-linejoin:round"
       d="m 507.04889,337.03913 c -1.72759,6.82387 -1.37631,4.11612 -1.8399,10.58343 -1.20079,16.75138 0.60499,33.59391 1.35992,50.3255 0.54221,12.0171 0.22493,24.04575 0.32001,36.07019 0.0611,7.72969 0.28654,14.28083 0.15997,21.95893 -0.19577,11.87573 -1.11237,23.70086 -1.43994,35.56622 -0.66906,24.23507 0.36524,48.4788 -0.23999,72.71631 -0.52528,21.03577 -2.02969,42.0417 -2.79993,63.06885 -0.23723,6.47639 -0.0717,12.96016 -0.31994,19.43902 -0.19854,5.18198 -0.72004,10.36462 -0.72004,15.55127 0,20.10677 0.50595,40.22607 0.79999,60.33301 0.0852,5.82818 0.19033,11.66827 0,17.49512 -0.0141,0.4305 -0.11206,7.04833 0.23999,7.12756 1.33402,0.30024 -1.20711,-7.80131 -1.27997,-8.0636"
       id="path59" />
    <path
       style="fill:none;stroke:#000000;stroke-width:2;stroke-linecap:round;stroke-linejoin:round"
       d="m 388.57257,702.78083 c 1.49328,1.19993 2.78501,2.70692 4.47986,3.59979 0.62418,0.32883 20.18056,-2.60644 22.39929,-2.87982 13.81474,-1.70216 27.54439,-2.31299 41.43872,-2.95191 5.49061,-0.25248 10.98913,-0.63935 16.47949,-0.86395 11.04944,-0.45202 22.22985,0.269 33.27893,0.43201 13.891,0.20493 27.77526,-1.20348 41.67871,-0.35999 9.40852,0.5708 18.703,1.95549 28.07917,2.80786 7.66082,0.69644 15.37034,0.93302 23.0393,1.51191 5.6481,0.42634 11.32025,0.98689 16.95947,1.51196 1.63977,0.15268 3.44977,0.57593 5.11976,0.57593 0.16178,0 -0.31962,-0.0506 -0.47999,-0.072 -0.55963,-0.0746 -1.11722,-0.16997 -1.67993,-0.21601 -3.86412,-0.31617 -2.57087,-0.4365 -5.27978,0.14398"
       id="path60" />
    <path
       style="fill:none;stroke:#000000;stroke-width:2;stroke-linecap:round;stroke-linejoin:round"
       d="m 388.49261,604.93775 c 1.46662,1.22393 2.77923,2.66058 4.39984,3.67181 1.2887,0.80412 6.70434,-0.40395 7.51978,-0.50403 4.34219,-0.53293 8.69439,-1.01172 13.03961,-1.5119 5.33866,-0.61453 10.69875,-1.22394 16.07947,-1.22394 5.73657,0 11.46301,0.46061 17.19946,0.50397 10.49608,0.0793 20.95146,-0.86778 31.43903,-1.07996 13.79688,-0.27913 27.56814,-0.0963 41.3587,-0.86395 11.17292,-0.62194 22.32365,-1.58392 33.51898,-1.58392 14.6816,0 29.49319,-0.0467 44.15857,0.64801 4.29598,0.2035 8.59506,0.54249 12.87964,0.93591 1.49133,0.13694 3.00332,0.16629 4.47986,0.43201 0.51837,0.0933 2.03376,0.54752 1.5199,0.43194 -2.74444,-0.61726 -5.27705,-1.79914 -7.99976,-2.51983"
       id="path61" />
    <path
       style="fill:none;stroke:#000000;stroke-width:2;stroke-linecap:round;stroke-linejoin:round"
       d="m 392.65241,509.68641 c 10.24275,1.7727 20.77015,0.77918 31.11902,0.64801 5.57764,-0.0707 11.154,0.54909 16.71949,0.79193 20.87397,0.91078 41.84685,-0.72487 62.63806,-2.37586 9.22923,-0.73287 18.49516,-1.62441 27.75909,-1.79992 6.83429,-0.12948 13.65118,0.45186 20.47937,0.64795 6.88635,0.19775 13.7489,0.64872 20.63941,0.71997 9.1452,0.0946 18.29208,-0.28797 27.43908,-0.28797 4.96929,0 9.78879,0.55282 14.71961,1.00794 1.4017,0.12937 2.77255,0.34193 4.15979,0.57599 0.42139,0.0711 1.66974,0.24733 1.28003,0.072 -3.13409,-1.41034 -7.48638,-1.51191 -10.87964,-1.51191"
       id="path62" />
    <path
       style="fill:none;stroke:#000000;stroke-width:2;stroke-linecap:round;stroke-linejoin:round"
       d="m 391.53247,416.09113 c 5.24905,3.50226 3.17439,3.19034 8.71973,3.45581 4.14803,0.19857 8.33578,-0.18027 12.47961,-0.35999 11.7935,-0.51147 23.63525,-1.54632 35.43891,-1.7279 10.15307,-0.15619 20.32353,0.216 30.47906,0.216 14.94301,0 29.85445,-0.30916 44.79858,0 11.87248,0.24562 23.62962,0.79883 35.51893,0.57593 16.17043,-0.30317 32.15414,-2.88405 48.31848,-3.02386 4.1644,-0.036 8.30932,-0.35993 12.47961,-0.35993 1.36419,0 2.72516,-0.009 4.07983,0.072 0.50634,0.0304 1.99099,-0.11635 1.52002,0.072 -1.97995,0.79192 -5.31842,-0.0503 -7.27978,0.14399 -1.61777,0.16028 -3.19995,0.57596 -4.79993,0.86395"
       id="path63" />
    <path
       style="fill:none;stroke:#000000;stroke-width:2;stroke-linecap:round;stroke-linejoin:round"
       d="m 846.07825,323.79181 c 7.54296,0.71101 15.18859,1.89246 22.79931,1.79986 4.19169,-0.051 8.36301,-0.43194 12.55957,-0.43194 9.91971,0 19.8381,0.14398 29.75916,0.14398 5.62728,0 11.26041,0.73913 16.87939,0.57599 12.45923,-0.36173 24.8787,-1.73537 37.35889,-1.43994 4.24929,0.10059 8.47466,0.73753 12.7196,0.93597 13.69519,0.64024 27.56543,0.30858 41.19873,-1.15198 13.7801,-1.47628 27.4307,-3.20435 41.2787,-3.95977 1.9744,-0.10771 11.9454,0.48121 13.2795,-0.71997 0.6726,-0.60554 -1.1053,-0.5655 -2.3999,-0.21601"
       id="path64" />
    <path
       style="fill:none;stroke:#000000;stroke-width:2;stroke-linecap:round;stroke-linejoin:round"
       d="m 958.71472,327.24762 c -1.12878,13.08904 -1.78497,26.43307 -1.43994,39.59802 0.58186,22.20131 1.93561,44.37931 2.15991,66.59668 0.0772,7.6438 -0.25367,15.25583 -0.31994,22.89484 -0.1245,14.34934 0.25678,28.70174 0.16003,43.05383 -0.15979,23.70433 -2.00911,47.36037 -2.23999,71.06043 -0.0696,7.14309 0.42798,14.18663 0.64001,21.31097 0.41886,14.0734 0.40003,28.25492 0.40003,42.33386 0,7.46257 -0.46432,14.92767 -0.32007,22.39087 0.22893,11.84404 0.45079,23.72647 0.80005,35.56622 0.3208,10.87499 0.80926,21.84941 1.75989,32.68641 0.43699,4.98161 0.97295,9.64074 0.80005,14.61523 -0.0815,2.34531 -0.64341,4.87997 -1.04004,7.19971 -0.11293,0.66047 -0.25273,1.27905 -0.31995,1.94385 -0.018,0.1783 -0.48348,0.35841 -0.32007,0.432 0.60665,0.27323 -0.20429,-0.22772 0.56006,0.28797"
       id="path65" />
    <path
       style="fill:none;stroke:#000000;stroke-width:2;stroke-linecap:round;stroke-linejoin:round"
       d="m 850.79809,609.83344 c 1.86662,0.50398 3.70857,1.11032 5.59986,1.51196 2.08896,0.44362 4.75309,0 6.87976,0 4.10292,0 8.21866,0.0786 12.31958,-0.072 5.54126,-0.20358 11.09292,-1.06234 16.63952,-0.93598 5.59941,0.12757 11.08415,1.37572 16.71949,1.43994 17.44889,0.19885 34.87195,-2.6386 52.2384,-4.10382 6.57954,-0.55512 13.17003,-0.1287 19.7594,-0.21594 9.59668,-0.12706 19.187,-1.05524 28.719,-2.08789 6.9854,-0.75676 14.027,-0.30125 21.0394,-0.64801 7.3851,-0.36519 14.6006,-1.27905 21.9993,-0.79193 4.578,0.30141 9.0877,0.38585 13.6796,0.50397 1.3752,0.0354 2.7105,0.37596 4.0798,0.432 0.427,0.0175 1.7059,-0.0372 1.28,-0.072 -2.3628,-0.19338 -4.7497,-0.27463 -7.1197,-0.35998"
       id="path66" />
    <path
       style="fill:none;stroke:#000000;stroke-width:2;stroke-linecap:round;stroke-linejoin:round"
       d="m 847.83838,707.10065 c 22.08329,-0.0632 44.08752,-2.23187 66.15784,-2.23187 10.94301,0 21.72019,-0.95038 32.63903,-1.51191 20.65998,-1.06248 41.32655,-2.95629 61.99795,-3.67187 9.3151,-0.32246 18.544,0.45014 27.8391,0.71997 5.5958,0.16244 11.2022,0.072 16.7996,0.072 3.9795,0 7.9461,0.216 11.9196,0.216 1.2796,0 2.4491,-0.0609 3.6799,0.21601 0.4655,0.10473 1.0619,0.072 1.5199,0.072 0.08,0 0.3193,0.0102 0.24,0 -2.3391,-0.30061 -4.4249,-0.33769 -6.7998,-0.28797"
       id="path67" />
    <path
       style="fill:none;stroke:#000000;stroke-width:2;stroke-linecap:round;stroke-linejoin:round"
       d="m 849.11804,509.68647 c 15.2137,0.8648 30.578,0.28125 45.83862,0.14398 10.36863,-0.0933 20.62674,-1.29708 30.95899,-1.94391 10.48942,-0.65667 21.02463,-0.53092 31.51904,-1.00793 6.06612,-0.27574 12.10328,-1.12969 18.15942,-1.58393 8.49346,-0.63704 17.01475,-0.89795 25.51929,-1.36792 4.7315,-0.26147 9.4262,-0.93004 14.1595,-1.15191 5.9196,-0.27748 11.8406,-0.3395 17.7594,-0.71998 4.6214,-0.29707 9.1252,-0.86395 13.7595,-0.86395 6.6709,0 13.1977,0.96161 19.8395,1.43988 1.3702,0.0987 3.218,0.14891 4.5598,0.50403 0.4534,0.11998 1.5228,0.7997 1.36,0.35993 -0.1132,-0.30599 -3.3298,-0.79809 -3.9999,-0.93592"
       id="path68" />
    <path
       style="fill:none;stroke:#000000;stroke-width:2;stroke-linecap:round;stroke-linejoin:round"
       d="m 844.95838,416.23511 c 14.14378,0.25988 28.27538,-0.99724 42.39868,-1.58392 6.49731,-0.26991 12.94843,0.26263 19.43933,0.35998 8.42758,0.1264 16.93075,0.0877 25.35925,-0.072 14.05601,-0.2663 28.10121,-1.40764 42.15869,-1.72791 4.85644,-0.11064 9.70576,0.24676 14.55957,0.14399 9.4193,-0.19945 18.7455,-0.53427 28.1591,0 10.9916,0.62382 21.8886,0.0633 32.879,0.28802 6.6319,0.13558 13.3154,0.43195 19.9193,0.43195 0.644,0 -1.2789,-0.15441 -1.9199,-0.21595 -1.3855,-0.13299 -2.7733,-0.23999 -4.1599,-0.35998"
       id="path69" />
    <path
       style="fill:none;stroke:#dd1100;stroke-width:2;stroke-linecap:round;stroke-linejoin:round"
       d="m 845.66064,190.32713 c -0.04,0.83996 0.0341,1.6932 -0.11999,2.51987 -0.28602,1.53456 -1.54778,4.76974 -2.0799,6.1917 -2.82511,7.54944 0.0331,-0.19749 -3.55993,9.50352 -0.65836,1.77756 -1.39137,3.76365 -1.99994,5.57971 -0.2734,0.81586 -1.3656,2.82201 -0.55994,2.51989 1.50051,-0.5627 5.45504,-7.07739 6.83979,-8.78357 0.45048,-0.55506 1.8084,-2.41224 2.3999,-2.12389 0.56785,0.27682 0.13817,2.37918 0.04,3.02385 -0.21517,1.41254 -1.01443,4.45835 -1.31995,5.54372 -0.18793,0.66764 -0.41031,1.32543 -0.63995,1.9799 -0.17051,0.48595 -0.59933,0.92643 -0.56,1.43993 0.0192,0.25012 0.42663,-0.26399 0.63995,-0.39598"
       id="path75" />
    <path
       style="fill:none;stroke:#dd1100;stroke-width:2;stroke-linecap:round;stroke-linejoin:round"
       d="m 862.66016,201.91855 c -2.44855,0.58416 -4.86841,1.30535 -6.95978,2.73585"
       id="path76" />
    <path
       style="fill:none;stroke:#dd1100;stroke-width:2;stroke-linecap:round;stroke-linejoin:round"
       d="m 856.94031,210.09013 c -0.10627,0.83656 -1.84823,6.59086 -1.51996,6.83966 0.19715,0.14943 0.47998,-0.11999 0.71997,-0.17999"
       id="path77" />
    <path
       style="fill:none;stroke:#dd1100;stroke-width:2;stroke-linecap:round;stroke-linejoin:round"
       d="m 868.33997,208.7222 c -0.75522,-6.52254 -4.47194,-2.30076 -5.67981,1.04396 -0.18836,0.52157 -0.27908,1.1143 -0.16004,1.65591 0.80392,3.65779 3.64048,0.85718 5.39984,2.12389 1.42999,1.02956 0.9986,3.78759 0.52002,5.14775 -1.71885,4.88512 -4.99904,11.34847 -10.11969,13.46332 -2.68763,1.11 -2.97178,-2.09 -2.83996,-3.67182"
       id="path78" />
    <path
       style="fill:none;stroke:#dd1100;stroke-width:2;stroke-linecap:round;stroke-linejoin:round"
       d="m 883.1795,189.75116 c -0.67999,1.55992 -1.43632,3.08874 -2.03997,4.67976 -0.33166,0.87413 -0.50664,1.79991 -0.75995,2.69986 -0.63998,1.76391 -1.22277,3.54963 -1.91992,5.29174 -1.31399,3.2835 -3.16039,6.70982 -4.71985,9.82751 -0.79115,1.58167 -1.72466,3.10129 -2.35993,4.75176 -0.095,0.24673 -0.0114,0.8378 0.23999,0.75596 1.25389,-0.40817 8.40234,-8.39189 8.79969,-8.78355 0.6871,-0.67728 2.65629,-2.81298 4.11987,-2.66387 0.43263,0.0441 0.30337,1.32578 0.04,2.51987 -0.51708,2.3447 -1.31358,4.39454 -2.11994,6.62367 -0.0183,0.0506 0.0827,-0.0692 0.12,-0.108 0.38948,-0.40529 0.77331,-0.81596 1.15997,-1.22394"
       id="path79" />
    <path
       style="fill:none;stroke:#dd1100;stroke-width:2;stroke-linecap:round;stroke-linejoin:round"
       d="m 915.05847,192.41502 c -2.63831,2.98857 -2.08954,1.76237 -3.27984,5.07575 -1.57821,4.39314 -3.00115,8.81613 -5.19989,12.95935 -0.39084,0.73648 -2.89488,6.24418 -4.63984,6.76765 -0.38171,0.11451 0.14867,-0.79212 0.32001,-1.15193"
       id="path81" />
    <path
       style="fill:none;stroke:#dd1100;stroke-width:2;stroke-linecap:round;stroke-linejoin:round"
       d="m 920.37836,211.02609 c -0.83858,-1.1254 -1.6139,-4.63281 -3.83991,-4.31978 -0.40671,0.0572 -0.72867,0.41157 -0.99994,0.71996 -1.58467,1.8015 -2.64179,4.70359 -1.32,6.98366 0.92461,1.59494 3.15943,0.0378 3.87988,-0.64798 0.85984,-0.81848 1.41046,-3.54406 2.27997,-2.73586 2.43939,2.26739 -1.46147,6.9009 0.79992,5.9757"
       id="path85" />
    <path
       style="fill:none;stroke:#dd1100;stroke-width:2;stroke-linecap:round;stroke-linejoin:round"
       d="m 927.1781,207.75026 c 3.15723,-0.0885 6.17096,-0.97698 9.03973,-2.2679"
       id="path86" />
    <path
       style="fill:none;stroke:#dd1100;stroke-width:2;stroke-linecap:round;stroke-linejoin:round"
       d="m 937.33783,191.33508 c -3.05494,8.81485 -5.941,17.69155 -9.43976,26.35068"
       id="path87" />
    <path
       style="fill:none;stroke:#dd1100;stroke-width:2;stroke-linecap:round;stroke-linejoin:round"
       d="m 939.05774,212.21404 c 2.08864,-0.33024 3.11637,-0.0997 4.63989,-1.51194 1.31656,-1.22042 2.65436,-2.79068 3.27985,-4.53576 0.81494,-2.27368 -1.05843,-2.49337 -2.47992,-1.15195 -1.2954,1.22243 -5.02806,5.76863 -5.43982,7.19965 -0.55392,1.92503 -0.18282,5.8677 1.47998,5.8677 2.22322,0 3.95234,-1.01591 5.7998,-1.94391"
       id="path88" />
    <path
       style="fill:none;stroke:#dd1100;stroke-width:2;stroke-linecap:round;stroke-linejoin:round"
       d="m 953.45728,207.93025 c -1.97973,2.77158 -1.49491,1.7866 -2.67987,4.35578 -0.47433,1.0284 -1.39134,2.62244 -1.63996,3.81581 -0.02,0.096 0.13591,-0.14167 0.19995,-0.21599 0.44266,-0.5137 0.88051,-1.03153 1.32001,-1.54793 1.10848,-1.30242 6.72921,-7.50011 8.07971,-6.94765 0.40783,0.16684 0.42843,0.82022 0.40003,1.25994 -0.14404,2.23018 -3.11299,5.79127 -3.15992,7.52362 -0.005,0.16895 0.29334,0.168 0.44001,0.252"
       id="path89" />
    <path
       style="fill:none;stroke:#dd1100;stroke-width:2;stroke-linecap:round;stroke-linejoin:round"
       d="m 970.73676,206.88629 c -5.33928,-2.16674 -11.26487,12.34156 -7.95972,13.60733 0.86028,0.32947 1.83992,0.096 2.75989,0.14398"
       id="path90" />
    <path
       style="fill:none;stroke:#dd1100;stroke-width:2;stroke-linecap:round;stroke-linejoin:round"
       d="m 975.53662,210.77411 c 0.75094,2.27676 1.62545,4.4871 2.83991,6.55167"
       id="path91" />
    <path
       style="fill:none;stroke:#dd1100;stroke-width:2;stroke-linecap:round;stroke-linejoin:round"
       d="m 984.61633,208.7222 c -0.73331,1.24794 -1.5577,2.44666 -2.19995,3.74382 -0.5081,1.02624 -0.82675,2.13584 -1.23993,3.20384 -2.10193,5.43318 -4.05952,10.92064 -6.27984,16.30718"
       id="path92" />
    <path
       style="fill:none;stroke:#dd1100;stroke-width:2;stroke-linecap:round;stroke-linejoin:round"
       d="m 1020.9383,657.28632 c -1.0913,0.53351 -2.3584,0.74777 -3.3999,1.40393 -0.2203,0.13876 0.5197,-0.0796 0.7599,-0.18 0.895,-0.37396 1.6899,-1.02864 2.64,-1.22393 1.5858,-0.32596 5.6111,-0.16807 7.4398,-0.28797 8.5408,-0.55997 16.7803,-3.00214 25.3992,-2.84387 4.9424,0.0908 9.83,0.76303 14.7595,1.07996 7.5458,0.48512 15.0096,0.39261 22.4793,-0.86396 3.2255,-0.5426 6.3088,-1.17321 9.3597,-2.41192 2.5763,-1.04602 5.7911,-2.08494 8.0798,-3.70777 2.7143,-1.92466 4.3369,-5.14949 5.8798,-7.99163 2.0262,-3.73253 4.0833,-7.69399 4.8398,-11.91541 1.4185,-7.91481 0.4364,-4.08092 1.48,-9.3595 0.9629,-4.87127 2.3877,-9.63869 3.1998,-14.54327 0.9592,-5.79254 1.1013,-11.73368 1.72,-17.56714 0.5575,-5.25605 1.3403,-10.50944 1.44,-15.80322 0.086,-4.57488 -0.7314,-9.09734 -1.12,-13.64331 -0.3386,-3.96161 -0.4625,-7.94458 -0.64,-11.91541 -0.3435,-7.68525 0.16,-15.35301 0.16,-23.03885 0,-3.55133 -0.4646,-7.06062 -0.32,-10.61947 0.1551,-3.81494 0.546,-7.5396 0.4,-11.37543 -0.1874,-4.92368 -0.7758,-9.81156 -1.0399,-14.72327 -0.2522,-4.69111 0.091,-9.34706 -0.2801,-14.03927 -0.2532,-3.20657 -0.8769,-6.37047 -1.1599,-9.57553 -0.2741,-3.10437 -0.2426,-6.21551 -0.44,-9.32352 -0.3337,-5.25619 -0.6589,-10.49614 -0.7199,-15.76721 -0.069,-5.98478 0.857,-11.90321 1.3199,-17.85514 0.5365,-6.89786 0.4437,-13.85308 1.2,-20.73495 0.4928,-4.4849 1.2255,-8.94623 1.7599,-13.42734 0.7103,-5.95518 1.3229,-11.90778 2.1199,-17.8551 1.2567,-9.37663 2.4815,-18.70176 3.04,-28.15057 0.3939,-6.66537 0.8052,-13.50138 0.04,-20.159 -0.3749,-3.26229 -1.2258,-6.46231 -1.8399,-9.68352 -0.6215,-3.25981 -1.2067,-6.34167 -2.24,-9.50352 -1.2199,-3.73289 -3.1089,-7.24309 -4.9598,-10.69147 -1.8572,-3.46015 -3.433,-7.33425 -5.6798,-10.54747 -3.885,-5.55601 -11.2981,-10.77514 -17.5195,-13.42732 -3.8041,-1.62173 -9.4563,-2.88767 -13.5995,-2.77187 -4.0757,0.11392 -8.1326,0.6703 -12.1997,0.93596 -5.4778,0.35781 -10.9563,0.78976 -16.3595,1.7999 -5.1844,0.96922 -10.2477,2.39594 -15.3994,3.49183 -8.9332,1.90027 -18.0658,3.74291 -27.1192,4.82376 -5.1404,0.61369 -10.2867,0.97186 -15.43956,1.47593 -6.35738,0.6219 -12.66338,1.91313 -18.99939,2.73585 -11.08659,1.43957 -22.2765,2.27101 -33.43896,2.87987 -5.34703,0.29165 -10.68875,0.25471 -16.03949,0.35997 -15.94216,0.31362 -31.9058,0.33467 -47.8385,0.97195 -6.58098,0.26323 -13.17225,0.49256 -19.7594,0.53998 -4.72015,0.034 -9.44091,-0.0686 -14.15955,0.072 -7.21792,0.2151 -14.49948,0.64334 -21.71933,0.288 -5.43697,-0.2676 -10.77424,-0.90866 -16.15948,-1.65593 -7.1147,-0.98726 -14.12934,-2.18017 -20.87934,-4.71576 -5.3413,-2.00643 -11.53172,-4.27437 -15.8395,-8.0996 -3.09192,-2.74556 -5.18542,-6.40133 -7.11978,-10.00749 -0.79034,-1.4734 -2.41458,-4.48232 -3.19993,-6.22769 -2.96177,-6.58231 -4.74484,-15.61708 -4.99981,-22.82286 -0.14673,-4.14668 0.39004,-8.30302 0.79995,-12.41937 0.44914,-4.51014 0.82641,-9.02274 1.23996,-13.53533 0.71063,-7.75417 2.70385,-15.62225 2.91993,-23.39883 0.0331,-1.18982 -0.12681,-2.34224 -0.20002,-3.52783 -0.0819,-1.32693 0.11365,-2.67421 0.20002,-3.99579 0.0195,-0.29847 0.40235,-2.8269 0.19998,-2.73587 -0.44218,0.19892 -0.92427,0.6816 -1.31995,0.93596 -3.75422,2.41337 -5.39739,4.05889 -7.75976,7.70361 -0.14551,0.22448 -2.50966,3.56751 -2.11994,3.70782 2.75338,0.99121 6.0402,0.97894 8.91971,1.18794 3.4965,0.25377 7.5202,0.56681 10.87967,-0.75597 0.0364,-0.0143 0.5064,-0.0944 0.51999,-0.17999 0.003,-0.0198 -2.16491,-2.91545 -2.63992,-3.67181 -2.38673,-3.80038 -4.73801,-7.53411 -9.47971,-8.38759"
       id="path93" />
    <path
       style="fill:none;stroke:#0044ee;stroke-width:2;stroke-linecap:round;stroke-linejoin:round"
       d="m 514.16519,192.17428 c -0.29332,0.76797 -0.60456,1.52933 -0.87997,2.3039 -0.88764,2.49643 -1.65179,5.01635 -2.71991,7.45163 -2.1758,4.96076 -5.48127,10.68247 -7.55978,15.04724"
       id="path94" />
    <path
       style="fill:none;stroke:#0044ee;stroke-width:2;stroke-linecap:round;stroke-linejoin:round"
       d="m 515.64514,208.15748 c -0.93331,0.40798 -2.03558,0.55068 -2.79992,1.22394 -1.4473,1.27484 -2.08948,5.81829 -0.12,7.01966 0.69218,0.42222 1.58962,0.42376 2.39993,0.39598 2.85815,-0.098 4.46564,-3.03942 5.27985,-5.32773 0.93192,-2.61913 0.58635,-10.06736 -1.47995,-8.2076"
       id="path95" />
    <path
       style="fill:none;stroke:#0044ee;stroke-width:2;stroke-linecap:round;stroke-linejoin:round"
       d="m 526.92478,207.29353 c 0.46265,0.85152 -4.39726,9.22378 -4.19986,10.76346 0.0935,0.72946 1.17235,-0.90829 1.63995,-1.47592 1.0467,-1.27062 2.85739,-3.70397 4.23987,-4.82376 2.81307,-2.27856 0.17997,6.2691 1.95993,5.14775 2.29769,-1.44753 5.16449,-6.82073 7.35977,-9.21555"
       id="path96" />
    <path
       style="fill:none;stroke:#0044ee;stroke-width:2;stroke-linecap:round;stroke-linejoin:round"
       d="m 562.0437,194.83816 c -1.91658,6.47692 -4.80164,12.62367 -7.27978,18.89905 -0.3637,0.92099 -2.16091,5.4375 -2.91992,6.80367"
       id="path97" />
    <path
       style="fill:none;stroke:#0044ee;stroke-width:2;stroke-linecap:round;stroke-linejoin:round"
       d="m 566.56354,211.72131 c -0.5201,-0.53493 -2.1452,-3.71246 -3.63986,-3.23984 -1.43255,0.45299 -4.07682,6.65097 -2.23993,7.59563 0.45508,0.23404 1.0427,-0.0313 1.51993,-0.216 0.78258,-0.30293 1.59141,-0.64612 2.19995,-1.22394 2.43008,-2.30741 1.33373,-4.42045 5.55981,-2.69986 0.3499,0.14246 -1.136,4.41722 0.28,6.08369"
       id="path98" />
    <path
       style="fill:none;stroke:#0044ee;stroke-width:2;stroke-linecap:round;stroke-linejoin:round"
       d="m 576.08325,208.84146 c 2.21808,-0.6708 4.524,-0.91237 6.5998,-1.97991"
       id="path99" />
    <path
       style="fill:none;stroke:#0044ee;stroke-width:2;stroke-linecap:round;stroke-linejoin:round"
       d="m 583.04303,195.19813 c -1.73118,4.07205 -2.85012,8.37053 -4.23987,12.56337 -0.84659,2.55415 -2.55988,7.10201 -3.2399,9.57553 -0.55881,2.03265 -0.61859,1.71476 0.71998,1.87191"
       id="path100" />
    <path
       style="fill:none;stroke:#0044ee;stroke-width:2;stroke-linecap:round;stroke-linejoin:round"
       d="m 586.08295,212.98124 c 3.19661,0.9097 8.14192,-5.96834 6.03979,-7.27163 -1.06315,-0.65915 -2.56823,1.72478 -2.75992,2.0159 -0.48312,0.73374 -0.81482,1.55859 -1.27993,2.30389 -0.62923,1.00829 -1.74497,1.791 -1.99994,2.95184 -0.23532,1.07136 1.05882,4.84997 1.83993,5.75972 0.35879,0.41788 1.01331,0.43198 1.51996,0.64797"
       id="path101" />
    <path
       style="fill:none;stroke:#0044ee;stroke-width:2;stroke-linecap:round;stroke-linejoin:round"
       d="m 597.28259,213.37723 c -0.45331,0.82795 -0.95352,1.63192 -1.35995,2.48387 -0.6479,1.35809 -1.21076,2.75522 -1.79996,4.1398 -0.13088,0.30757 -0.34572,0.60199 -0.35998,0.93596 -0.0249,0.58345 0.94861,-0.70126 1.31997,-1.15195 0.55679,-0.67573 1.0735,-1.38422 1.63993,-2.0519 0.90766,-1.0699 4.24995,-5.94137 6.55981,-5.29173 2.44081,0.68647 -0.59505,8.49689 0.71997,8.20758 0.53556,-0.11782 0.93331,-0.57597 1.39997,-0.86395"
       id="path102" />
    <path
       style="fill:none;stroke:#0044ee;stroke-width:2;stroke-linecap:round;stroke-linejoin:round"
       d="m 614.92206,208.98544 c -1.01331,-0.072 -2.08068,-0.55042 -3.03992,-0.21599 -0.70881,0.24712 -1.02573,1.1132 -1.39996,1.76392 -1.49157,2.59355 -4.97367,7.54 -1.95996,10.65547 0.89096,0.92104 4.08523,0.20997 4.67987,0.144"
       id="path103" />
    <path
       style="fill:none;stroke:#0044ee;stroke-width:2;stroke-linecap:round;stroke-linejoin:round"
       d="m 620.08191,214.16919 c 1.88509,3.35033 1.84623,7.73442 6.55975,7.05565"
       id="path104" />
    <path
       style="fill:none;stroke:#0044ee;stroke-width:2;stroke-linecap:round;stroke-linejoin:round"
       d="m 634.40143,210.0294 c -2.50638,4.78823 -4.72158,9.71899 -7.07977,14.57927 -1.54413,3.18248 -3.62292,6.62399 -4.71985,10.0795"
       id="path105" />
    <path
       style="fill:none;stroke:#0044ee;stroke-width:2;stroke-linecap:round;stroke-linejoin:round"
       d="m 565.08362,464.21268 c 2.33132,0.19032 4.58855,-0.33263 6.9198,-0.288 2.39821,0.0459 4.76163,0.54521 7.15979,0.64798 2.70257,0.11582 5.41892,-0.0316 8.11975,0.14398 4.09155,0.26596 8.0939,0.77255 12.19958,0.89997 3.26553,0.10134 6.53428,-0.033 9.79969,0.072 3.76025,0.12086 7.55325,0.60238 11.31964,0.46799 11.29058,-0.40287 22.66599,-1.9722 33.55896,-4.93177 12.89358,-3.50312 25.01136,-8.66415 31.95904,-20.87896 2.52577,-4.44058 3.14801,-9.08527 3.67987,-14.1113 1.2786,-12.08262 -1.13319,-24.09558 -1.19995,-36.17816 -0.0209,-3.78035 0.5172,-7.61132 0.75995,-11.37546 0.27387,-4.24669 0.0656,-2.33662 0.32001,-7.27164 0.22154,-4.29788 0.808,-8.59834 1.11993,-12.88733 0.34873,-4.79495 0.29572,-9.66834 0.16004,-14.47128 -0.0681,-2.41149 -0.26821,-4.82167 -0.20002,-7.23566 0.0761,-2.69469 0.53295,-5.36198 0.39997,-8.0636 -0.24018,-4.8794 -1.53446,-9.60366 -2.15991,-14.43527 -1.38247,-10.6795 -2.60754,-21.98225 -2.67994,-32.72235 -0.0187,-2.77557 -0.11885,-5.61949 0.04,-8.38757 0.49687,-8.65565 2.17806,-17.39466 3.15992,-26.0267 0.78451,-6.89708 1.10088,-13.81524 1.55993,-20.73498 0.38362,-5.78255 0.63227,-11.5579 0.83997,-17.35113 0.0888,-2.47845 0.28261,-4.97111 0.23999,-7.45161 -0.0662,-3.85074 -0.3042,-7.68254 -0.56,-11.51943 -0.19122,-2.86824 0.023,-5.76705 -0.08,-8.63957 -0.0519,-1.44876 0.56655,-6.4685 0.23999,-7.05565 -0.033,-0.0594 -1.4841,0.98676 -1.55999,1.04395 -2.60241,1.9608 -4.8422,4.24817 -7.19977,6.47967 -1.25106,1.18416 -2.11283,1.85216 -1.83991,2.0159 0.6985,0.41906 7.96322,-0.24619 8.91968,-0.28798 2.67808,-0.117 5.36639,-0.0161 8.0398,-0.25198 1.68825,-0.14897 0.13559,-0.0862 1.9599,-0.18 0.23997,-0.0123 0.77214,0.19857 0.71997,-0.036 -0.0514,-0.23125 -2.44898,-2.12527 -2.83991,-2.62787 -1.11531,-1.43394 -1.46028,-2.98855 -2.35992,-4.49979 -0.26611,-0.44701 -0.83009,-0.86708 -1.15997,-1.29592 -0.40079,-0.52101 -0.66684,-1.10873 -1.07996,-1.61992"
       id="path106" />
  </g>
</svg>
